<?xml version="1.0" encoding="utf-8"?>
<!-- Generator: Adobe Illustrator 19.2.1, SVG Export Plug-In . SVG Version: 6.00 Build 0)  -->
<!DOCTYPE svg PUBLIC "-//W3C//DTD SVG 1.1//EN" "http://www.w3.org/Graphics/SVG/1.1/DTD/svg11.dtd">
<svg version="1.1" id="Icons" xmlns="http://www.w3.org/2000/svg" xmlns:xlink="http://www.w3.org/1999/xlink" x="0px" y="0px"
	 width="680px" height="420px" viewBox="0 0 680 420" enable-background="new 0 0 680 420" xml:space="preserve">
<g id="XMLID_11_">
	<g>
		<path fill="#03373D" d="M230.105,57.385v11.96c0,1.1-0.89,2-2,2h-1.7v40.49c0,1.1-0.9,2-2,2h-26.37c-1.1,0-2-0.9-2-2v-40.49h-1.7
			c-1.1,0-2-0.9-2-2v-11.96c0-1.11,0.9-2,2-2h0.96l0.78-3.94c0.19-0.94,1.01-1.61,1.96-1.61h26.37c0.95,0,1.78,0.67,1.96,1.61
			l0.79,3.94h0.95C229.215,55.385,230.105,56.275,230.105,57.385z M226.105,67.345v-7.96h-4.15v7.96H226.105z M223.075,55.385
			l-0.31-1.55h-23.09l-0.3,1.55H223.075z M222.405,109.835v-38.49h-22.37v5.94h16.92c1.1,0,2,0.9,2,2v18.62c0,1.1-0.9,2-2,2h-16.92
			v9.93H222.405z M217.955,67.345v-7.96h-4.73v7.96H217.955z M214.955,95.905v-14.62h-14.92v14.62H214.955z M209.225,67.345v-7.96
			h-4.74v7.96H209.225z M200.485,67.345v-7.96h-4.15v7.96H200.485z"/>
		<rect x="221.955" y="59.385" fill="#EF472E" width="4.15" height="7.96"/>
		<polygon fill="#E6E6E6" points="222.765,53.835 223.075,55.385 199.375,55.385 199.675,53.835 		"/>
		<path fill="#CCCCCC" d="M222.405,71.345v38.49h-22.37v-9.93h16.92c1.1,0,2-0.9,2-2v-18.62c0-1.1-0.9-2-2-2h-16.92v-5.94H222.405z"
			/>
		<rect x="213.225" y="59.385" fill="#EF472E" width="4.73" height="7.96"/>
		<rect x="200.035" y="81.285" fill="#EF472E" width="14.92" height="14.62"/>
		<rect x="204.485" y="59.385" fill="#EF472E" width="4.74" height="7.96"/>
		<rect x="196.335" y="59.385" fill="#EF472E" width="4.15" height="7.96"/>
	</g>
	<g>
	</g>
</g>
<g id="XMLID_10_">
	<g>
		<path fill="#03373D" d="M365.685,51.965c1.05,1.22,1.54,2.83,1.32,4.42l-2.49,18.17c-0.36,2.62-1.77,4.79-3.44,6.65
			c-2.92,3.24-10.57,13.9-10.57,13.9v6.95c0,6.62-5.38,12.01-12,12.01h-11.52c-6.62,0-12.01-5.39-12.01-12.01v-10.47
			c-3.55-0.9-6.19-4.11-6.19-7.94c0-4.52,3.67-8.19,8.19-8.19c4.52,0,8.19,3.67,8.19,8.19c0,3.83-2.64,7.04-6.19,7.94v10.47
			c0,4.41,3.59,8.01,8.01,8.01h11.52c4.41,0,8-3.6,8-8.01v-6.95c0,0-7.64-10.66-10.55-13.9c-1.68-1.86-3.09-4.03-3.45-6.65
			l-2.49-18.17c-0.22-1.59,0.26-3.2,1.32-4.42c1.06-1.21,2.59-1.9,4.2-1.9h2.8c1.11,0,2,0.89,2,2v1.57c0,1.11-0.89,2-2,2
			c-0.96,0-1.76-0.67-1.95-1.57h-0.85c-0.62,0-1.01,0.33-1.18,0.53c-0.18,0.21-0.46,0.63-0.38,1.25l2.49,18.17
			c0.49,3.58,3.58,6.27,7.19,6.27h9.71c3.61,0,6.7-2.69,7.19-6.27l2.48-18.17c0.09-0.62-0.19-1.05-0.37-1.25
			c-0.17-0.2-0.56-0.53-1.18-0.53h-0.74c-0.19,0.9-0.99,1.57-1.95,1.57c-1.1,0-2-0.89-2-2v-1.57c0-1.11,0.9-2,2-2h2.69
			C363.095,50.065,364.625,50.755,365.685,51.965z M348.505,91.125l5.21-6.85c-0.12,0-10.29,0-10.41,0L348.505,91.125z
			 M321.165,83.645c0-2.31-1.88-4.19-4.19-4.19s-4.19,1.88-4.19,4.19c0,2.31,1.88,4.19,4.19,4.19S321.165,85.955,321.165,83.645z"/>
		<path fill="#CCCCCC" d="M353.715,84.275l-5.21,6.85l-5.2-6.85C343.425,84.275,353.595,84.275,353.715,84.275z"/>
		<circle fill="#EF472E" cx="316.975" cy="83.645" r="4.19"/>
	</g>
	<g>
	</g>
</g>
<g>
	<g id="XMLID_1_">
		<g>
			<path fill="#03373D" d="M116.725,76.005v36.08c0,1.1-0.89,2-2,2h-60c-1.1,0-2-0.9-2-2v-43.33c0-1.11,0.9-2,2-2h1.67v-7.59
				c0-1.1,0.9-2,2-2h2v-4.73c0-1.1,0.9-2,2-2h49.03c1.1,0,2,0.9,2,2v21.57h1.3C115.835,74.005,116.725,74.895,116.725,76.005z
				 M112.725,110.085v-32.08h-34.32c-0.51,0-1-0.2-1.38-0.55l-7.09-6.7h-13.21v39.33H112.725z M109.425,74.005v-19.57h-45.03v2.73
				h40.03c1.1,0,2,0.9,2,2v14.84H109.425z M102.425,74.005v-12.84h-42.03v5.59h10.33c0.51,0,1.01,0.19,1.38,0.54l7.09,6.71H102.425z
				"/>
			<path fill="#CCCCCC" d="M112.725,78.005v32.08h-56v-39.33h13.21l7.09,6.7c0.38,0.35,0.87,0.55,1.38,0.55H112.725z M97.725,93.835
				c0-7.17-5.83-13-13-13c-7.16,0-13,5.83-13,13s5.84,13,13,13C91.895,106.835,97.725,101.005,97.725,93.835z"/>
			<path fill="#EF472E" d="M109.425,54.435v19.57h-3v-14.84c0-1.1-0.9-2-2-2h-40.03v-2.73H109.425z"/>
			<path fill="#F2F2F2" d="M102.425,61.165v12.84h-23.23l-7.09-6.71c-0.37-0.35-0.87-0.54-1.38-0.54h-10.33v-5.59H102.425z"/>
			<path fill="#03373D" d="M84.725,80.835c7.17,0,13,5.83,13,13s-5.83,13-13,13c-7.16,0-13-5.83-13-13S77.565,80.835,84.725,80.835z
				 M93.725,93.835c0-4.96-4.03-9-9-9c-4.96,0-9,4.04-9,9s4.04,9,9,9C89.695,102.835,93.725,98.795,93.725,93.835z"/>
			<polygon fill="#EF472E" points="90.915,91.345 90.915,96.315 87.215,96.325 87.215,100.025 82.245,100.025 82.245,96.325 
				78.545,96.325 78.545,91.355 82.245,91.345 82.245,87.645 87.215,87.645 87.215,91.345 			"/>
		</g>
		<g>
		</g>
	</g>
</g>
<g>
	<g id="XMLID_9_">
		<g>
			<path fill="#03373D" d="M500.675,83.555v22.47c0,2.33-1.89,4.23-4.22,4.23h-3.27c-0.39,2.4-2.46,4.25-4.98,4.25h-39.12
				c-2.52,0-4.59-1.85-4.98-4.25h-3.27c-2.33,0-4.22-1.9-4.22-4.23v-22.47c0-2.32,1.89-4.22,4.22-4.22h3.19v-10.83
				c0-1.11,0.89-2,2-2h6.92l3.49-6.52c1.55-2.89,4.55-4.69,7.83-4.69h8.76c3.28,0,6.28,1.8,7.83,4.69l3.49,6.52h6.92
				c1.11,0,2,0.89,2,2v10.83h3.19C498.785,79.335,500.675,81.235,500.675,83.555z M496.675,106.025v-13.52h-3.41v6.95v6.8h3.19
				C496.575,106.255,496.675,106.155,496.675,106.025z M496.675,88.505v-4.95c0-0.12-0.1-0.22-0.22-0.22h-3.19v5.17H496.675z
				 M489.265,109.435v-4.3c-0.63,0.23-1.32,0.37-2.04,0.37h-37.16c-0.72,0-1.41-0.14-2.04-0.37v4.3c0,0.59,0.47,1.07,1.06,1.07
				h39.12C488.795,110.505,489.265,110.025,489.265,109.435z M489.265,99.455v-28.95h-41.24v28.95c0,1.13,0.91,2.05,2.04,2.05h37.16
				C488.355,101.505,489.265,100.585,489.265,99.455z M479.805,66.505l-2.48-4.63c-0.85-1.59-2.5-2.58-4.3-2.58h-8.76
				c-1.8,0-3.45,0.99-4.3,2.58l-2.48,4.63H479.805z M444.025,106.255v-6.8v-6.95h-3.41v13.52c0,0.13,0.1,0.23,0.22,0.23H444.025z
				 M444.025,88.505v-5.17h-3.19c-0.12,0-0.22,0.1-0.22,0.22v4.95H444.025z"/>
			<path fill="#F2F2F2" d="M496.675,92.505v13.52c0,0.13-0.1,0.23-0.22,0.23h-3.19v-6.8v-6.95H496.675z"/>
			<path fill="#EF472E" d="M496.675,83.555v4.95h-3.41v-5.17h3.19C496.575,83.335,496.675,83.435,496.675,83.555z"/>
			<path fill="#EF472E" d="M489.265,105.135v4.3c0,0.59-0.47,1.07-1.06,1.07h-39.12c-0.59,0-1.06-0.48-1.06-1.07v-4.3
				c0.63,0.23,1.32,0.37,2.04,0.37h37.16C487.945,105.505,488.635,105.365,489.265,105.135z"/>
			<path fill="#CCCCCC" d="M489.265,70.505v28.95c0,1.13-0.91,2.05-2.04,2.05h-37.16c-1.13,0-2.04-0.92-2.04-2.05v-28.95H489.265z
				 M480.145,86.005c0-6.34-5.16-11.5-11.5-11.5s-11.5,5.16-11.5,11.5c0,6.34,5.16,11.5,11.5,11.5S480.145,92.345,480.145,86.005z"
				/>
			<path fill="#03373D" d="M468.645,74.505c6.34,0,11.5,5.16,11.5,11.5c0,6.34-5.16,11.5-11.5,11.5s-11.5-5.16-11.5-11.5
				C457.145,79.665,462.305,74.505,468.645,74.505z M476.145,86.005c0-4.14-3.36-7.5-7.5-7.5c-4.14,0-7.5,3.36-7.5,7.5
				c0,4.13,3.36,7.5,7.5,7.5C472.785,93.505,476.145,90.135,476.145,86.005z"/>
			<polygon fill="#EF472E" points="473.985,83.855 473.985,88.145 470.795,88.145 470.795,91.345 466.495,91.345 466.495,88.145 
				463.305,88.145 463.305,83.855 466.495,83.855 466.495,80.655 470.795,80.655 470.795,83.855 			"/>
			<path fill="#F2F2F2" d="M444.025,99.455v6.8h-3.19c-0.12,0-0.22-0.1-0.22-0.23v-13.52h3.41V99.455z"/>
			<path fill="#EF472E" d="M444.025,83.335v5.17h-3.41v-4.95c0-0.12,0.1-0.22,0.22-0.22H444.025z"/>
		</g>
		<g>
		</g>
	</g>
</g>
<g>
	<g id="XMLID_12_">
		<g>
			<path fill="#03373D" d="M626.585,77.655v22.06c0,7.79-6.33,14.12-14.12,14.12h-38.06c-1.1,0-2-0.9-2-2v-7.41c0-1.11,0.9-2,2-2
				h1.74v-4.38c0-1.11,0.89-2,2-2h15.58h7.58c1.11,0,2,0.89,2,2v4.38h8.49c1.49,0,2.7-1.21,2.7-2.71v-22.06c0-1.49-1.21-2.7-2.7-2.7
				h-6.78c0.09,0.41,0.13,0.84,0.13,1.28c0,3.52-2.87,6.39-6.39,6.39c-0.35,0-0.69-0.04-1.02-0.09v0.91c0,1.11-0.9,2-2,2h-0.01v6.14
				c0,1.1-0.89,2-2,2h-8c-1.1,0-2-0.9-2-2v-6.14h-0.01c-1.1,0-2-0.89-2-2v-26.74c0-1.1,0.9-2,2-2h12.02c1.1,0,2,0.9,2,2v6.84h14.73
				C620.255,63.545,626.585,69.875,626.585,77.655z M622.585,99.715v-22.06c0-5.58-4.54-10.11-10.12-10.11h-14.73v2.38
				c0.33-0.05,0.67-0.09,1.02-0.09c1.33,0,2.57,0.42,3.6,1.12h9.44c3.7,0,6.7,3,6.7,6.7v22.06c0,3.7-3,6.71-6.7,6.71h-35.39v3.41
				h36.06C618.045,109.835,622.585,105.295,622.585,99.715z M601.145,76.235c0-1.32-1.07-2.4-2.39-2.4s-2.39,1.08-2.39,2.4
				c0,1.31,1.07,2.39,2.39,2.39S601.145,77.545,601.145,76.235z M599.305,102.425v-2.38h-19.16v2.38H599.305z M593.735,81.445v-1.27
				c-0.86-1.09-1.37-2.46-1.37-3.94c0-1.49,0.51-2.86,1.37-3.95v-13.58h-8.02v22.74h0.01h8H593.735z M591.725,89.585v-4.14h-4v4.14
				H591.725z"/>
			<path fill="#CCCCCC" d="M622.585,77.655v22.06c0,5.58-4.54,10.12-10.12,10.12h-36.06v-3.41h35.39c3.7,0,6.7-3.01,6.7-6.71v-22.06
				c0-3.7-3-6.7-6.7-6.7h-9.44c-1.03-0.7-2.27-1.12-3.6-1.12c-0.35,0-0.69,0.04-1.02,0.09v-2.38h14.73
				C618.045,67.545,622.585,72.075,622.585,77.655z"/>
			<path fill="#EF472E" d="M598.755,73.835c1.32,0,2.39,1.08,2.39,2.4c0,1.31-1.07,2.39-2.39,2.39s-2.39-1.08-2.39-2.39
				C596.365,74.915,597.435,73.835,598.755,73.835z"/>
			<rect x="580.145" y="100.045" fill="#EF472E" width="19.16" height="2.38"/>
			<path fill="#03373D" d="M594.205,49.835c1.1,0,2,0.9,2,2c0,1.1-0.9,2-2,2h-8.95c-1.11,0-2-0.9-2-2c0-1.1,0.89-2,2-2H594.205z"/>
			<path fill="#F2F2F2" d="M593.735,80.175v1.27h-0.01h-8h-0.01v-22.74h8.02v13.58c-0.86,1.09-1.37,2.46-1.37,3.95
				C592.365,77.715,592.875,79.085,593.735,80.175z"/>
			<rect x="587.725" y="85.445" fill="#EF472E" width="4" height="4.14"/>
		</g>
		<g>
		</g>
	</g>
</g>
<g>
	<g id="XMLID_6_">
		<g>
			<path fill="#F2F2F2" d="M88.645,185.645v18.03h-6.67c-0.77,0-1.48,0.44-1.81,1.15l-1.56,3.33l-3.97-12.75
				c-0.23-0.75-0.89-1.3-1.67-1.39c-0.78-0.09-1.54,0.28-1.95,0.96l-4.83,8.04h-9.54v-17.37H88.645z"/>
			<path fill="#03373D" d="M116.645,183.745v54.63c0,1.1-0.9,2-2,2h-60c-1.1,0-2-0.9-2-2v-54.63c0-1.16,0.94-2.1,2.09-2.1h59.82
				C115.705,181.645,116.645,182.585,116.645,183.745z M112.645,236.375v-8.35h-56v8.35H112.645z M112.645,224.025v-28.54v-9.84h-20
				v9.84v28.54H112.645z M88.645,224.025v-16.35h-5.4l-3.21,6.84c-0.33,0.71-1.03,1.15-1.81,1.15c-0.04,0-0.09,0-0.13,0
				c-0.83-0.06-1.53-0.61-1.78-1.4l-4.17-13.41l-3.12,5.19c-0.36,0.6-1.01,0.97-1.71,0.97h-10.67v17.01H88.645z M88.645,203.675
				v-18.03h-32v17.37h9.54l4.83-8.04c0.41-0.68,1.17-1.05,1.95-0.96c0.78,0.09,1.44,0.64,1.67,1.39l3.97,12.75l1.56-3.33
				c0.33-0.71,1.04-1.15,1.81-1.15H88.645z"/>
			<path fill="#EF472E" d="M112.645,228.025v8.35h-56v-8.35H112.645z M71.475,232.335c0-0.53-0.21-1.04-0.58-1.41
				c-0.75-0.75-2.09-0.75-2.83,0c-0.37,0.37-0.59,0.88-0.59,1.41c0,0.53,0.22,1.04,0.59,1.41c0.37,0.38,0.89,0.59,1.41,0.59
				c0.53,0,1.05-0.21,1.42-0.59C71.265,233.375,71.475,232.865,71.475,232.335z M64.315,232.335c0-0.53-0.22-1.04-0.59-1.41
				c-0.74-0.75-2.08-0.75-2.83,0c-0.37,0.37-0.58,0.88-0.58,1.41c0,0.53,0.21,1.04,0.58,1.41c0.38,0.38,0.89,0.59,1.42,0.59
				c0.52,0,1.04-0.21,1.41-0.59C64.095,233.375,64.315,232.865,64.315,232.335z"/>
			<path fill="#F2F2F2" d="M112.645,195.485v28.54h-20v-28.54h1.38c0,5.06,6.87,9.01,7.65,9.44c0.3,0.17,0.64,0.25,0.97,0.25
				c0.33,0,0.66-0.08,0.96-0.24c0.78-0.43,7.66-4.32,7.66-9.45H112.645z M107.895,218.505c0-1.11-0.9-2-2-2h-6.5c-1.1,0-2,0.89-2,2
				c0,1.1,0.9,2,2,2h6.5C106.995,220.505,107.895,219.605,107.895,218.505z M106.395,211.835c0-1.1-0.9-2-2-2h-3.5c-1.1,0-2,0.9-2,2
				c0,1.1,0.9,2,2,2h3.5C105.495,213.835,106.395,212.935,106.395,211.835z"/>
			<path fill="#F2F2F2" d="M112.645,185.645v9.84h-1.38c0-3.18-2.14-5.31-5.31-5.31c-1.25,0-2.4,0.43-3.31,1.16
				c-0.91-0.73-2.06-1.16-3.31-1.16c-3.22,0-5.31,2.08-5.31,5.31h-1.38v-9.84H112.645z"/>
			<path fill="#03373D" d="M105.955,190.175c3.17,0,5.31,2.13,5.31,5.31c0,5.13-6.88,9.02-7.66,9.45c-0.3,0.16-0.63,0.24-0.96,0.24
				c-0.33,0-0.67-0.08-0.97-0.25c-0.78-0.43-7.65-4.38-7.65-9.44c0-3.23,2.09-5.31,5.31-5.31c1.25,0,2.4,0.43,3.31,1.16
				C103.555,190.605,104.705,190.175,105.955,190.175z M107.265,195.485c0-0.85-0.21-1.31-1.31-1.31c-0.72,0-1.31,0.59-1.31,1.31
				c0,1.1-0.9,2-2,2c-1.1,0-2-0.9-2-2c0-0.72-0.59-1.31-1.31-1.31c-1.11,0-1.31,0.42-1.31,1.31c0,1.68,2.49,3.96,4.62,5.35
				C104.575,199.585,107.265,197.325,107.265,195.485z"/>
			<path fill="#03373D" d="M105.895,216.505c1.1,0,2,0.89,2,2c0,1.1-0.9,2-2,2h-6.5c-1.1,0-2-0.9-2-2c0-1.11,0.9-2,2-2H105.895z"/>
			<path fill="#EF472E" d="M105.955,194.175c1.1,0,1.31,0.46,1.31,1.31c0,1.84-2.69,4.1-4.62,5.35c-2.13-1.39-4.62-3.67-4.62-5.35
				c0-0.89,0.2-1.31,1.31-1.31c0.72,0,1.31,0.59,1.31,1.31c0,1.1,0.9,2,2,2c1.1,0,2-0.9,2-2
				C104.645,194.765,105.235,194.175,105.955,194.175z"/>
			<path fill="#03373D" d="M104.395,209.835c1.1,0,2,0.9,2,2c0,1.1-0.9,2-2,2h-3.5c-1.1,0-2-0.9-2-2c0-1.1,0.9-2,2-2H104.395z"/>
			<path fill="#CCCCCC" d="M88.645,207.675v16.35h-32v-17.01h10.67c0.7,0,1.35-0.37,1.71-0.97l3.12-5.19l4.17,13.41
				c0.25,0.79,0.95,1.34,1.78,1.4c0.04,0,0.09,0,0.13,0c0.78,0,1.48-0.44,1.81-1.15l3.21-6.84H88.645z"/>
			<path fill="#03373D" d="M70.895,230.925c0.37,0.37,0.58,0.88,0.58,1.41c0,0.53-0.21,1.04-0.58,1.41
				c-0.37,0.38-0.89,0.59-1.42,0.59c-0.52,0-1.04-0.21-1.41-0.59c-0.37-0.37-0.59-0.88-0.59-1.41c0-0.53,0.22-1.04,0.59-1.41
				C68.805,230.175,70.145,230.175,70.895,230.925z"/>
			<path fill="#03373D" d="M63.725,230.925c0.37,0.37,0.59,0.88,0.59,1.41c0,0.53-0.22,1.04-0.59,1.41
				c-0.37,0.38-0.89,0.59-1.41,0.59c-0.53,0-1.04-0.21-1.42-0.59c-0.37-0.37-0.58-0.88-0.58-1.41c0-0.53,0.21-1.04,0.58-1.41
				C61.645,230.175,62.985,230.175,63.725,230.925z"/>
		</g>
		<g>
		</g>
	</g>
</g>
<g id="XMLID_4_">
	<g>
		<path fill="#E6E6E6" d="M367.365,232.645c0.71,0,1.28,0.57,1.28,1.28c0,0.7-0.57,1.27-1.28,1.27c-0.7,0-1.27-0.57-1.27-1.27
			C366.095,233.215,366.665,232.645,367.365,232.645z"/>
		<polygon fill="#EF472E" points="368.645,210.435 328.005,210.435 319.435,206.715 368.645,206.715 		"/>
		<path fill="#03373D" d="M368.645,206.715v-3.84h-41.06c-0.31,0-0.61-0.07-0.89-0.21l-14.05-6.97v8.06l6.79,2.96l8.57,3.72h40.64
			V206.715z M372.645,200.875v11.56c0,1.1-0.9,2-2,2h-9.74l-10.2,4.57l10.34,4.63h6.32c1.11,0,2,0.9,2,2v3.41
			c1.92,0.79,3.28,2.68,3.28,4.88c0,2.91-2.37,5.27-5.28,5.27s-5.27-2.36-5.27-5.27c0-2.2,1.35-4.09,3.27-4.88v-1.41h-49.44v1.41
			c1.92,0.79,3.27,2.68,3.27,4.88c0,2.91-2.36,5.27-5.27,5.27c-2.91,0-5.28-2.36-5.28-5.27c0-2.2,1.36-4.09,3.28-4.88v-3.41
			c0-1.1,0.89-2,2-2h16.67l10.33-4.63l-10.19-4.57h-3.15c-0.27,0-0.55-0.06-0.8-0.17l-16.94-7.37c-0.73-0.32-1.2-1.04-1.2-1.83
			v-12.59c0-0.7,0.36-1.34,0.95-1.7c0.58-0.37,1.32-0.4,1.94-0.1l16.52,8.2h0.76v-6.19c0-1.1,0.9-2,2-2h35.09c1.1,0,2,0.9,2,2v6.19
			h2.74C371.745,198.875,372.645,199.775,372.645,200.875z M368.645,233.925c0-0.71-0.57-1.28-1.28-1.28c-0.7,0-1.27,0.57-1.27,1.28
			c0,0.7,0.57,1.27,1.27,1.27C368.075,235.195,368.645,234.625,368.645,233.925z M363.905,198.875v-4.19h-31.09v4.19H363.905z
			 M340.375,223.635h10.89l-5.45-2.44L340.375,223.635z M345.815,216.815l5.31-2.38h-10.61L345.815,216.815z M315.195,233.925
			c0-0.71-0.57-1.28-1.27-1.28c-0.71,0-1.28,0.57-1.28,1.28c0,0.7,0.57,1.27,1.28,1.27
			C314.625,235.195,315.195,234.625,315.195,233.925z"/>
		<path fill="#E6E6E6" d="M313.925,232.645c0.7,0,1.27,0.57,1.27,1.28c0,0.7-0.57,1.27-1.27,1.27c-0.71,0-1.28-0.57-1.28-1.27
			C312.645,233.215,313.215,232.645,313.925,232.645z"/>
		<path fill="#CCCCCC" d="M368.645,206.715h-49.21l-6.79-2.96v-8.06l14.05,6.97c0.28,0.14,0.58,0.21,0.89,0.21h41.06V206.715z"/>
	</g>
	<g>
	</g>
</g>
<g>
	<g id="XMLID_3_">
		<g>
			<path fill="#03373D" d="M500.645,218.845v8.09c0,1.1-0.9,2-2,2h-5.99c-0.27,3.68-3.34,6.61-7.1,6.61c-3.76,0-6.83-2.93-7.1-6.61
				h-20.55c-0.27,3.68-3.34,6.61-7.1,6.61c-3.76,0-6.83-2.93-7.1-6.61h-5.06c-1.1,0-2-0.9-2-2v-31.96c0-1.1,0.9-2,2-2h41.97
				c3.79,0,7.24,2.24,8.79,5.7l4.34,9.7l3.52,3.06C499.415,213.295,500.645,215.995,500.645,218.845z M496.645,224.935v-4.72v-1.37
				c0-1.69-0.73-3.29-2-4.39l-3.29-2.86h-11.86c-1.11,0-2-0.89-2-2v-12.62h-19.15h-17.7v23.24v4.72h3.95
				c1.23-2.17,3.55-3.64,6.21-3.64s4.98,1.47,6.21,3.64h22.33c1.23-2.17,3.55-3.64,6.21-3.64s4.98,1.47,6.21,3.64H496.645z
				 M489.015,207.595l-3.26-7.28c-0.78-1.75-2.4-2.97-4.26-3.26v10.54H489.015z M488.685,228.415c0-1.72-1.41-3.12-3.13-3.12
				s-3.12,1.4-3.12,3.12c0,1.73,1.4,3.13,3.12,3.13S488.685,230.145,488.685,228.415z M453.925,228.415c0-1.72-1.4-3.12-3.12-3.12
				s-3.12,1.4-3.12,3.12c0,1.73,1.4,3.13,3.12,3.13S453.925,230.145,453.925,228.415z"/>
			<path fill="#EF472E" d="M496.645,220.215v4.72h-4.88c-1.23-2.17-3.55-3.64-6.21-3.64v-1.08H496.645z"/>
			<path fill="#CCCCCC" d="M496.645,218.845v1.37h-11.09h-27.21v-0.81c5.83,0,10.57-4.74,10.57-10.57c0-5.83-4.74-10.57-10.57-10.57
				v-1.29h19.15v12.62c0,1.11,0.89,2,2,2h11.86l3.29,2.86C495.915,215.555,496.645,217.155,496.645,218.845z"/>
			<path fill="#F2F2F2" d="M485.755,200.315l3.26,7.28h-7.52v-10.54C483.355,197.345,484.975,198.565,485.755,200.315z"/>
			<path fill="#F2F2F2" d="M485.555,225.295c1.72,0,3.13,1.4,3.13,3.12c0,1.73-1.41,3.13-3.13,3.13s-3.12-1.4-3.12-3.13
				C482.435,226.695,483.835,225.295,485.555,225.295z"/>
			<path fill="#EF472E" d="M485.555,220.215v1.08c-2.66,0-4.98,1.47-6.21,3.64h-22.33c-1.23-2.17-3.55-3.64-6.21-3.64v-1.08h7.54
				H485.555z"/>
			<path fill="#03373D" d="M458.345,198.265c5.83,0,10.57,4.74,10.57,10.57c0,5.83-4.74,10.57-10.57,10.57s-10.57-4.74-10.57-10.57
				C447.775,203.005,452.515,198.265,458.345,198.265z M464.915,208.835c0-3.62-2.94-6.57-6.57-6.57c-3.62,0-6.57,2.95-6.57,6.57
				c0,3.62,2.95,6.57,6.57,6.57C461.975,215.405,464.915,212.455,464.915,208.835z"/>
			<polygon fill="#EF472E" points="463.165,206.895 463.165,210.775 460.285,210.775 460.285,213.655 456.415,213.655 
				456.415,210.775 453.525,210.775 453.525,206.895 456.415,206.895 456.415,204.015 460.285,204.015 460.285,206.895 			"/>
			<path fill="#CCCCCC" d="M458.345,219.405v0.81h-7.54h-10.16v-23.24h17.7v1.29c-5.83,0-10.57,4.74-10.57,10.57
				C447.775,214.665,452.515,219.405,458.345,219.405z"/>
			<path fill="#F2F2F2" d="M450.805,225.295c1.72,0,3.12,1.4,3.12,3.12c0,1.73-1.4,3.13-3.12,3.13s-3.12-1.4-3.12-3.13
				C447.685,226.695,449.085,225.295,450.805,225.295z"/>
			<path fill="#EF472E" d="M450.805,220.215v1.08c-2.66,0-4.98,1.47-6.21,3.64h-3.95v-4.72H450.805z"/>
		</g>
		<g>
		</g>
	</g>
</g>
<g>
	<g id="XMLID_2_">
		<g>
			<path fill="#03373D" d="M627.355,193.285v46.5c0,1.11-0.89,2-2,2c-1.1,0-2-0.89-2-2v-46.5c0-2.74-2.22-4.96-4.96-4.96
				s-4.97,2.22-4.97,4.96v39.54c0,4.94-4.02,8.96-8.96,8.96h-12.11c-4.94,0-8.97-4.02-8.97-8.96v-8.77
				c-2.21-0.11-4.42-0.41-6.61-0.88v3.74c0,1.11-0.89,2-2,2c-1.1,0-2-0.89-2-2v-4.82c-1.07-0.34-2.13-0.72-3.18-1.16
				c-0.75-0.3-1.24-1.03-1.24-1.84v-36.22c0-0.81,0.49-1.54,1.24-1.85c10.18-4.22,21.4-4.22,31.59,0c0.75,0.31,1.24,1.04,1.24,1.85
				v36.22c0,0.81-0.49,1.54-1.24,1.85c-1.05,0.43-2.11,0.81-3.18,1.15v4.82c0,1.11-0.9,2-2,2c-1.11,0-2-0.89-2-2v-3.74
				c-2.19,0.47-4.4,0.77-6.62,0.88v8.77c0,2.73,2.23,4.96,4.97,4.96h12.11c2.74,0,4.96-2.23,4.96-4.96v-39.54
				c0-4.94,4.03-8.96,8.97-8.96S627.355,188.345,627.355,193.285z M598.425,217.735v-5.23v-28.27c-8.46-3.16-17.61-3.16-26.07,0
				v28.27v5.23C580.815,220.895,589.965,220.895,598.425,217.735z"/>
			<path fill="#EF472E" d="M598.425,212.505v5.23c-8.46,3.16-17.61,3.16-26.07,0v-5.23h2.53c0,1.11,0.9,2,2,2h17
				c0.53,0,1.04-0.21,1.42-0.58c0.37-0.38,0.58-0.89,0.58-1.42H598.425z"/>
			<path fill="#CCCCCC" d="M598.425,184.235v28.27h-2.54v-22.39c0-1.1-0.89-2-2-2h-17c-0.53,0-1.03,0.21-1.41,0.59
				c-0.37,0.37-0.59,0.88-0.59,1.41v22.39h-2.53v-28.27C580.815,181.075,589.965,181.075,598.425,184.235z"/>
			<path fill="#03373D" d="M595.885,190.115v22.39c0,0.53-0.21,1.04-0.58,1.42c-0.38,0.37-0.89,0.58-1.42,0.58h-17
				c-1.1,0-2-0.89-2-2v-22.39c0-0.53,0.22-1.04,0.59-1.41c0.38-0.38,0.88-0.59,1.41-0.59h17
				C594.995,188.115,595.885,189.015,595.885,190.115z M591.885,210.505v-18.39h-13v18.39H591.885z"/>
			<path fill="#E6E6E6" d="M591.885,192.115v18.39h-13v-18.39H591.885z M585.395,207.755c2.75,0,5-2.25,5-5
				c0-3.45-3.55-7.02-3.96-7.42c-0.58-0.57-1.51-0.57-2.09,0c-0.4,0.39-3.95,3.93-3.95,7.42
				C580.395,205.505,582.635,207.755,585.395,207.755z"/>
			<path fill="#03373D" d="M590.395,202.755c0,2.75-2.25,5-5,5c-2.76,0-5-2.25-5-5c0-3.49,3.55-7.03,3.95-7.42
				c0.58-0.57,1.51-0.57,2.09,0C586.845,195.735,590.395,199.305,590.395,202.755z M585.395,204.755c1.1,0,2-0.9,2-2
				c0-1.21-1.01-2.85-2-4.1c-0.93,1.15-2,2.8-2,4.1C583.395,203.855,584.285,204.755,585.395,204.755z"/>
			<path fill="#EF472E" d="M587.395,202.755c0,1.1-0.9,2-2,2c-1.11,0-2-0.9-2-2c0-1.3,1.07-2.95,2-4.1
				C586.385,199.905,587.395,201.545,587.395,202.755z"/>
		</g>
		<g>
		</g>
	</g>
</g>
<g id="XMLID_5_">
	<g>
		<path fill="#03373D" d="M243.885,233.095c1.12,1.78,1.19,3.95,0.17,5.79c-1.01,1.85-2.88,2.95-4.98,2.95h-42.34
			c-0.97,0.36-2,0.57-3.09,0.57c-4.85,0-8.79-3.93-8.79-8.76v-32.66h-2.06c-1.1,0-2-0.89-2-2v-5.72c0-1.1,0.9-2,2-2h21.7
			c1.1,0,2,0.9,2,2v5.72c0,1.11-0.9,2-2,2h-2.06v15.67l6.34-9.45v-17.46h-2.69c-0.28,0-0.54-0.06-0.78-0.16
			c-0.72-0.3-1.22-1.01-1.22-1.84v-5.91c0-1.1,0.89-2,2-2h23.12c1.11,0,2,0.9,2,2v5.91c0,1.1-0.89,2-2,2h-2.69v17.46l17.34,25.85
			C243.865,233.065,243.875,233.085,243.885,233.095z M240.555,236.955c0.14-0.26,0.42-0.94-0.04-1.7l-8.74-13.02h-28.26l-1.08,1.6
			v9.81c0,1.52-0.39,2.94-1.07,4.19h37.71C239.975,237.835,240.405,237.225,240.555,236.955z M229.095,218.235l-6.25-9.31
			c-0.22-0.33-0.33-0.72-0.33-1.12v-20.06c0-1.11,0.89-2,2-2h2.69v-1.91h-19.12v1.91h2.69c1.11,0,2,0.89,2,2v20.06
			c0,0.4-0.11,0.79-0.33,1.12l-6.25,9.31H229.095z M202.495,196.985v-1.72h-17.7v1.72h2.06c1.1,0,2,0.9,2,2v9.66h9.58v-9.66
			c0-1.1,0.9-2,2-2H202.495z M198.435,233.645v-21h-9.58v21c0,2.62,2.15,4.76,4.79,4.76S198.435,236.265,198.435,233.645z"/>
		<path fill="#CCCCCC" d="M240.515,235.255c0.46,0.76,0.18,1.44,0.04,1.7c-0.15,0.27-0.58,0.88-1.48,0.88h-37.71
			c0.68-1.25,1.07-2.67,1.07-4.19v-9.81l1.08-1.6h28.26L240.515,235.255z"/>
		<path fill="#FFFFFF" d="M222.845,208.925l6.25,9.31h-22.9l6.25-9.31c0.22-0.33,0.33-0.72,0.33-1.12v-20.06c0-1.11-0.89-2-2-2
			h-2.69v-1.91h19.12v1.91h-2.69c-1.11,0-2,0.89-2,2v20.06C222.515,208.205,222.625,208.595,222.845,208.925z"/>
		<path fill="#FFFFFF" d="M202.495,195.265v1.72h-2.06c-1.1,0-2,0.9-2,2v9.66h-9.58v-9.66c0-1.1-0.9-2-2-2h-2.06v-1.72H202.495z"/>
		<path fill="#EF472E" d="M198.435,212.645v21c0,2.62-2.15,4.76-4.79,4.76s-4.79-2.14-4.79-4.76v-21H198.435z"/>
	</g>
	<g>
	</g>
</g>
<g>
	<g id="XMLID_15_">
		<g>
			<path fill="#03373D" d="M107.795,332.825c2.6,3.13,0.5,7.52,0.25,8.02c-0.35,0.69-1.06,1.09-1.79,1.09c-0.3,0-0.61-0.07-0.9-0.22
				c-0.98-0.5-1.38-1.7-0.88-2.68c0.4-0.8,0.99-2.76,0.25-3.66c-2.04-2.46-1.58-5.74-0.98-7.29c0.4-1.03,1.55-1.55,2.59-1.15
				c1.02,0.4,1.54,1.55,1.15,2.57C107.455,329.575,106.765,331.575,107.795,332.825z"/>
			<path fill="#03373D" d="M84.645,305.835c17.65,0,32,14.35,32,32s-14.35,32-32,32s-32-14.35-32-32S66.995,305.835,84.645,305.835z
				 M112.645,337.835c0-15.44-12.56-28-28-28s-28,12.56-28,28s12.56,28,28,28S112.645,353.275,112.645,337.835z"/>
			<path fill="#CCCCCC" d="M84.645,309.835c15.44,0,28,12.56,28,28s-12.56,28-28,28s-28-12.56-28-28S69.205,309.835,84.645,309.835z
				 M108.045,340.845c0.25-0.5,2.35-4.89-0.25-8.02c-1.03-1.25-0.34-3.25-0.31-3.32c0.39-1.02-0.13-2.17-1.15-2.57
				c-1.04-0.4-2.19,0.12-2.59,1.15c-0.6,1.55-1.06,4.83,0.98,7.29c0.74,0.9,0.15,2.86-0.25,3.66c-0.5,0.98-0.1,2.18,0.88,2.68
				c0.29,0.15,0.6,0.22,0.9,0.22C106.985,341.935,107.695,341.535,108.045,340.845z M100.545,346.685c1.01-0.46,1.45-1.64,0.99-2.65
				c-0.46-1-1.64-1.44-2.65-0.98l-1.49,0.68c-0.21-0.28-0.43-0.55-0.66-0.8l1.28-1.87c0.62-0.91,0.39-2.16-0.53-2.78
				c-0.91-0.62-2.15-0.39-2.78,0.52l-1.23,1.81c-1.08-0.45-2.26-0.71-3.5-0.71c-1.85,0-3.58,0.57-5.03,1.54l-1.75-1.51
				c-0.84-0.72-2.1-0.63-2.82,0.21s-0.63,2.1,0.21,2.82l1.58,1.37c-0.89,1.45-1.42,3.17-1.42,5.01c0,0.52,0.05,1.02,0.13,1.52
				l-2.39,0.54c-1.08,0.25-1.75,1.32-1.51,2.39c0.21,0.93,1.04,1.56,1.95,1.56c0.15,0,0.29-0.01,0.44-0.05l2.97-0.67
				c0.24,0.36,0.51,0.69,0.79,1.01l-0.96,0.99c-0.77,0.79-0.75,2.06,0.04,2.83c0.39,0.38,0.89,0.56,1.39,0.56
				c0.52,0,1.04-0.2,1.44-0.6l1.35-1.39c1.1,0.48,2.32,0.74,3.59,0.74c1.96,0,3.78-0.63,5.27-1.69l2.14,1.38
				c0.33,0.21,0.71,0.31,1.08,0.31c0.66,0,1.3-0.32,1.68-0.91c0.6-0.93,0.33-2.17-0.59-2.77l-1.59-1.02
				c0.79-1.39,1.25-3.01,1.25-4.73c0-0.67-0.07-1.32-0.2-1.95L100.545,346.685z M98.865,324.025c1.07-0.28,1.71-1.37,1.43-2.44
				c-1.3-5.04-5.98-6.37-8.28-6.37h-0.01c-1.1,0-1.98,0.88-1.99,1.98s0.88,2,1.98,2.02c0.37,0,3.6,0.14,4.43,3.37
				c0.23,0.9,1.05,1.5,1.94,1.5C98.525,324.085,98.695,324.065,98.865,324.025z M100.465,330.265c0-0.52-0.21-1.04-0.58-1.41
				c-0.75-0.74-2.08-0.75-2.83,0c-0.37,0.37-0.59,0.89-0.59,1.41c0,0.53,0.22,1.05,0.59,1.42s0.89,0.58,1.41,0.58
				c0.53,0,1.04-0.21,1.42-0.58C100.255,331.315,100.465,330.795,100.465,330.265z M87.455,322.285c0.96-0.56,1.27-1.79,0.71-2.74
				c-0.57-0.95-1.79-1.27-2.74-0.7l-2.35,1.39c-0.72-1.05-1.62-1.79-2.71-2.21c-1.04-0.4-2.09-0.44-3.06-0.3l-1.02-2.11
				c-0.48-1-1.67-1.42-2.67-0.94c-0.99,0.48-1.41,1.68-0.93,2.67l0.81,1.68c-1.18,0.57-2.25,1.24-3.21,1.98l-1.15-0.94
				c-0.86-0.69-2.12-0.57-2.82,0.29c-0.69,0.85-0.57,2.11,0.29,2.81l0.81,0.67c-0.95,1.23-1.68,2.59-2.15,4.04
				c-0.52,1.63-0.66,3.3-0.46,4.82l-2.95,1.28c-1.01,0.44-1.48,1.62-1.04,2.63c0.33,0.76,1.06,1.21,1.84,1.21
				c0.26,0,0.53-0.06,0.79-0.17l2.87-1.24c0.62,0.7,1.32,1.01,1.85,1.16c0.34,0.09,0.68,0.13,1.02,0.13c1.09,0,2.2-0.42,3.38-1.04
				l0.47,1.99c0.22,0.92,1.04,1.54,1.94,1.54c0.16,0,0.31-0.02,0.47-0.06c1.07-0.25,1.74-1.33,1.48-2.4l-0.75-3.14
				c1.06-0.6,2.17-1.18,3.33-1.6c0.37-0.13,0.71-0.27,1.04-0.41l3.31,2.34c0.35,0.25,0.76,0.37,1.16,0.37
				c0.62,0,1.24-0.29,1.63-0.84c0.64-0.91,0.42-2.15-0.48-2.79l-2.09-1.48c0.31-0.38,0.56-0.79,0.75-1.22
				c0.69-1.6,0.46-3.29-0.12-5.04L87.455,322.285z M73.135,356.095c0.32-1.06-0.28-2.17-1.34-2.49c-2.19-0.65-2.89-2.85-2.93-2.97
				c-0.31-1.05-1.41-1.66-2.47-1.36c-1.06,0.3-1.68,1.4-1.38,2.46c0.05,0.18,1.29,4.41,5.63,5.7c0.19,0.06,0.39,0.09,0.58,0.09
				C72.085,357.525,72.875,356.965,73.135,356.095z M66.875,344.025c0-0.53-0.22-1.04-0.59-1.42c-0.74-0.74-2.08-0.74-2.83,0
				c-0.37,0.38-0.58,0.89-0.58,1.42c0,0.52,0.21,1.04,0.58,1.41c0.38,0.38,0.89,0.59,1.42,0.59c0.52,0,1.04-0.21,1.41-0.59
				C66.655,345.065,66.875,344.545,66.875,344.025z"/>
			<path fill="#03373D" d="M101.535,344.035c0.46,1.01,0.02,2.19-0.99,2.65l-1.53,0.71c0.13,0.63,0.2,1.28,0.2,1.95
				c0,1.72-0.46,3.34-1.25,4.73l1.59,1.02c0.92,0.6,1.19,1.84,0.59,2.77c-0.38,0.59-1.02,0.91-1.68,0.91c-0.37,0-0.75-0.1-1.08-0.31
				l-2.14-1.38c-1.49,1.06-3.31,1.69-5.27,1.69c-1.27,0-2.49-0.26-3.59-0.74l-1.35,1.39c-0.4,0.4-0.92,0.6-1.44,0.6
				c-0.5,0-1-0.18-1.39-0.56c-0.79-0.77-0.81-2.04-0.04-2.83l0.96-0.99c-0.28-0.32-0.55-0.65-0.79-1.01l-2.97,0.67
				c-0.15,0.04-0.29,0.05-0.44,0.05c-0.91,0-1.74-0.63-1.95-1.56c-0.24-1.07,0.43-2.14,1.51-2.39l2.39-0.54
				c-0.08-0.5-0.13-1-0.13-1.52c0-1.84,0.53-3.56,1.42-5.01l-1.58-1.37c-0.84-0.72-0.93-1.98-0.21-2.82s1.98-0.93,2.82-0.21
				l1.75,1.51c1.45-0.97,3.18-1.54,5.03-1.54c1.24,0,2.42,0.26,3.5,0.71l1.23-1.81c0.63-0.91,1.87-1.14,2.78-0.52
				c0.92,0.62,1.15,1.87,0.53,2.78l-1.28,1.87c0.23,0.25,0.45,0.52,0.66,0.8l1.49-0.68
				C99.895,342.595,101.075,343.035,101.535,344.035z M95.215,349.345c0-3-2.35-5.44-5.24-5.44c-2.88,0-5.23,2.44-5.23,5.44
				s2.35,5.43,5.23,5.43C92.865,354.775,95.215,352.345,95.215,349.345z"/>
			<path fill="#03373D" d="M100.295,321.585c0.28,1.07-0.36,2.16-1.43,2.44c-0.17,0.04-0.34,0.06-0.5,0.06
				c-0.89,0-1.71-0.6-1.94-1.5c-0.83-3.23-4.06-3.37-4.43-3.37c-1.1-0.02-1.99-0.92-1.98-2.02s0.89-1.98,1.99-1.98h0.01
				C94.315,315.215,98.995,316.545,100.295,321.585z"/>
			<path fill="#03373D" d="M99.885,328.855c0.37,0.37,0.58,0.89,0.58,1.41c0,0.53-0.21,1.05-0.58,1.42
				c-0.38,0.37-0.89,0.58-1.42,0.58c-0.52,0-1.04-0.21-1.41-0.58s-0.59-0.89-0.59-1.42c0-0.52,0.22-1.04,0.59-1.41
				C97.805,328.105,99.135,328.115,99.885,328.855z"/>
			<path fill="#EF472E" d="M89.975,343.905c2.89,0,5.24,2.44,5.24,5.44s-2.35,5.43-5.24,5.43c-2.88,0-5.23-2.43-5.23-5.43
				S87.095,343.905,89.975,343.905z M91.975,350.165c0-0.53-0.21-1.04-0.58-1.42c-0.75-0.74-2.08-0.74-2.83,0
				c-0.37,0.38-0.59,0.89-0.59,1.42c0,0.52,0.22,1.04,0.59,1.41c0.37,0.37,0.89,0.59,1.41,0.59c0.53,0,1.05-0.22,1.42-0.59
				C91.765,351.205,91.975,350.685,91.975,350.165z"/>
			<path fill="#03373D" d="M91.395,348.745c0.37,0.38,0.58,0.89,0.58,1.42c0,0.52-0.21,1.04-0.58,1.41
				c-0.37,0.37-0.89,0.59-1.42,0.59c-0.52,0-1.04-0.22-1.41-0.59c-0.37-0.37-0.59-0.89-0.59-1.41c0-0.53,0.22-1.04,0.59-1.42
				C89.315,348.005,90.645,348.005,91.395,348.745z"/>
			<path fill="#03373D" d="M88.165,319.545c0.56,0.95,0.25,2.18-0.71,2.74l-2.75,1.63c0.58,1.75,0.81,3.44,0.12,5.04
				c-0.19,0.43-0.44,0.84-0.75,1.22l2.09,1.48c0.9,0.64,1.12,1.88,0.48,2.79c-0.39,0.55-1.01,0.84-1.63,0.84
				c-0.4,0-0.81-0.12-1.16-0.37l-3.31-2.34c-0.33,0.14-0.67,0.28-1.04,0.41c-1.16,0.42-2.27,1-3.33,1.6l0.75,3.14
				c0.26,1.07-0.41,2.15-1.48,2.4c-0.16,0.04-0.31,0.06-0.47,0.06c-0.9,0-1.72-0.62-1.94-1.54l-0.47-1.99
				c-1.18,0.62-2.29,1.04-3.38,1.04c-0.34,0-0.68-0.04-1.02-0.13c-0.53-0.15-1.23-0.46-1.85-1.16l-2.87,1.24
				c-0.26,0.11-0.53,0.17-0.79,0.17c-0.78,0-1.51-0.45-1.84-1.21c-0.44-1.01,0.03-2.19,1.04-2.63l2.95-1.28
				c-0.2-1.52-0.06-3.19,0.46-4.82c0.47-1.45,1.2-2.81,2.15-4.04l-0.81-0.67c-0.86-0.7-0.98-1.96-0.29-2.81
				c0.7-0.86,1.96-0.98,2.82-0.29l1.15,0.94c0.96-0.74,2.03-1.41,3.21-1.98l-0.81-1.68c-0.48-0.99-0.06-2.19,0.93-2.67
				c1-0.48,2.19-0.06,2.67,0.94l1.02,2.11c0.97-0.14,2.02-0.1,3.06,0.3c1.09,0.42,1.99,1.16,2.71,2.21l2.35-1.39
				C86.375,318.275,87.595,318.595,88.165,319.545z M81.155,327.345c0.35-0.8-0.32-2.54-0.98-4.1c-0.34-0.8-0.75-1.3-1.24-1.49
				c-0.2-0.08-0.42-0.11-0.66-0.11c-0.98,0-2.18,0.56-2.82,0.87c-4.37,2.04-5.87,5-6.38,6.58c-0.64,2.01-0.35,3.65,0.13,4.5
				c0.02,0.04,0.04,0.07,0.06,0.1c0.62-0.05,2.26-1.02,3.37-1.68c1.6-0.95,3.43-2.03,5.5-2.79
				C80.295,328.445,80.975,327.775,81.155,327.345z"/>
			<path fill="#EF472E" d="M80.175,323.245c0.66,1.56,1.33,3.3,0.98,4.1c-0.18,0.43-0.86,1.1-3.02,1.88
				c-2.07,0.76-3.9,1.84-5.5,2.79c-1.11,0.66-2.75,1.63-3.37,1.68c-0.02-0.03-0.04-0.06-0.06-0.1c-0.48-0.85-0.77-2.49-0.13-4.5
				c0.51-1.58,2.01-4.54,6.38-6.58c0.64-0.31,1.84-0.87,2.82-0.87c0.24,0,0.46,0.03,0.66,0.11
				C79.425,321.945,79.835,322.445,80.175,323.245z M78.505,325.695c0-0.39-0.16-0.78-0.44-1.06c-0.56-0.56-1.56-0.56-2.12,0
				c-0.28,0.28-0.44,0.67-0.44,1.06c0,0.4,0.16,0.79,0.44,1.06c0.28,0.28,0.67,0.44,1.06,0.44c0.4,0,0.79-0.16,1.06-0.44
				C78.345,326.475,78.505,326.095,78.505,325.695z M73.735,328.695c0-0.39-0.16-0.78-0.44-1.06c-0.56-0.56-1.56-0.56-2.12,0
				c-0.28,0.28-0.44,0.67-0.44,1.06c0,0.4,0.16,0.79,0.44,1.06c0.28,0.28,0.67,0.44,1.06,0.44c0.4,0,0.78-0.16,1.06-0.44
				C73.575,329.485,73.735,329.095,73.735,328.695z"/>
			<path fill="#03373D" d="M78.065,324.635c0.28,0.28,0.44,0.67,0.44,1.06c0,0.4-0.16,0.78-0.44,1.06
				c-0.27,0.28-0.66,0.44-1.06,0.44c-0.39,0-0.78-0.16-1.06-0.44c-0.28-0.27-0.44-0.66-0.44-1.06c0-0.39,0.16-0.78,0.44-1.06
				C76.505,324.075,77.505,324.075,78.065,324.635z"/>
			<path fill="#03373D" d="M73.295,327.635c0.28,0.28,0.44,0.67,0.44,1.06c0,0.4-0.16,0.79-0.44,1.06
				c-0.28,0.28-0.66,0.44-1.06,0.44c-0.39,0-0.78-0.16-1.06-0.44c-0.28-0.27-0.44-0.66-0.44-1.06c0-0.39,0.16-0.78,0.44-1.06
				C71.735,327.075,72.735,327.075,73.295,327.635z"/>
			<path fill="#03373D" d="M71.795,353.605c1.06,0.32,1.66,1.43,1.34,2.49c-0.26,0.87-1.05,1.43-1.91,1.43
				c-0.19,0-0.39-0.03-0.58-0.09c-4.34-1.29-5.58-5.52-5.63-5.7c-0.3-1.06,0.32-2.16,1.38-2.46c1.06-0.3,2.16,0.31,2.47,1.36
				C68.905,350.755,69.605,352.955,71.795,353.605z"/>
			<path fill="#03373D" d="M66.285,342.605c0.37,0.38,0.59,0.89,0.59,1.42c0,0.52-0.22,1.04-0.59,1.41
				c-0.37,0.38-0.89,0.59-1.41,0.59c-0.53,0-1.04-0.21-1.42-0.59c-0.37-0.37-0.58-0.89-0.58-1.41c0-0.53,0.21-1.04,0.58-1.42
				C64.205,341.865,65.545,341.865,66.285,342.605z"/>
		</g>
		<g>
		</g>
	</g>
</g>
<g id="XMLID_14_">
	<g>
		<path fill="#03373D" d="M244.055,316.645c0.79,0.78,0.79,2.04,0,2.83c-0.39,0.39-0.9,0.58-1.41,0.58c-0.51,0-1.02-0.19-1.41-0.58
			l-3.7-3.7l-6.27,6.27l0.02,0.01l7.92,7.93c0.78,0.78,0.78,2.04,0,2.82c-0.39,0.4-0.9,0.59-1.41,0.59c-0.52,0-1.03-0.19-1.42-0.59
			l-1.75-1.75l-28.74,28.74c-0.38,0.37-0.89,0.58-1.42,0.58s-1.04-0.21-1.41-0.58l-2.94-2.94c-0.02,0.48-0.21,0.94-0.57,1.3
			c-0.39,0.39-0.9,0.59-1.41,0.59c-0.52,0-1.03-0.2-1.42-0.59l-0.78-0.78l-11.88,11.87c-0.39,0.39-0.9,0.59-1.41,0.59
			c-0.51,0-1.02-0.2-1.41-0.59c-0.79-0.78-0.79-2.04,0-2.82l11.87-11.88l-0.78-0.78c-0.78-0.78-0.78-2.05,0-2.83
			c0.36-0.36,0.82-0.55,1.3-0.57l-2.94-2.94c-0.78-0.78-0.78-2.05,0-2.83l28.74-28.74l-1.75-1.75c-0.79-0.78-0.79-2.05,0-2.83
			c0.78-0.78,2.04-0.78,2.82,0l7.94,7.94l6.27-6.27l-3.7-3.7c-0.78-0.78-0.78-2.04,0-2.82s2.05-0.79,2.83,0L244.055,316.645z
			 M214.585,345.435l17.21-17.21l-9.54-9.54l-5.91,5.91l2.11,2.12c0.78,0.78,0.78,2.04,0,2.82c-0.39,0.39-0.9,0.59-1.41,0.59
			c-0.52,0-1.03-0.2-1.42-0.59l-2.11-2.11l-2.18,2.18l2.11,2.11c0.78,0.79,0.78,2.05,0,2.83c-0.39,0.39-0.9,0.59-1.41,0.59
			c-0.51,0-1.03-0.2-1.42-0.59l-2.11-2.11l-2.18,2.18l2.11,2.11c0.73,0.73,0.77,1.9,0.12,2.69c-0.04,0.04-0.07,0.09-0.12,0.14
			c-0.39,0.39-0.9,0.59-1.41,0.59c-0.51,0-1.03-0.2-1.42-0.59l-2.11-2.11l-2.18,2.18l2.11,2.11c0.78,0.78,0.78,2.05,0,2.83
			c-0.39,0.39-0.9,0.58-1.41,0.58s-1.02-0.19-1.41-0.58l-2.12-2.11l-3.56,3.56l9.54,9.54L214.585,345.435z"/>
		<path fill="#F2F2F2" d="M231.795,328.225l-17.21,17.21l-6.03-6.02c0.65-0.79,0.61-1.96-0.12-2.69l-2.11-2.11l2.18-2.18l2.11,2.11
			c0.39,0.39,0.91,0.59,1.42,0.59c0.51,0,1.02-0.2,1.41-0.59c0.78-0.78,0.78-2.04,0-2.83l-2.11-2.11l2.18-2.18l2.11,2.11
			c0.39,0.39,0.9,0.59,1.42,0.59c0.51,0,1.02-0.2,1.41-0.59c0.78-0.78,0.78-2.04,0-2.82l-2.11-2.12l5.91-5.91L231.795,328.225z"/>
		<path fill="#EF472E" d="M214.585,345.435l-10.12,10.12l-9.54-9.54l3.56-3.56l2.12,2.11c0.39,0.39,0.9,0.58,1.41,0.58
			s1.02-0.19,1.41-0.58c0.78-0.78,0.78-2.05,0-2.83l-2.11-2.11l2.18-2.18l2.11,2.11c0.39,0.39,0.91,0.59,1.42,0.59
			c0.51,0,1.02-0.2,1.41-0.59c0.05-0.05,0.08-0.1,0.12-0.14L214.585,345.435z"/>
	</g>
	<g>
	</g>
</g>
<g>
	<g id="XMLID_8_">
		<g>
			<path fill="#03373D" d="M372.475,308.335v29.5c0,1.1-0.89,2-2,2h-14v19.92c0,5.74-4.67,10.41-10.41,10.41h-14.82
				c-5.74,0-10.41-4.67-10.41-10.41v-2.03h-9.5c-1.11,0-2-0.9-2-2v-40.91c0-1.1,0.89-2,2-2h23c1.1,0,2,0.9,2,2v23.02v17.89
				c0,1.1-0.9,2-2,2h-9.5v2.03c0,3.54,2.88,6.41,6.41,6.41h14.82c3.54,0,6.41-2.87,6.41-6.41v-19.92h-11.83c-1.1,0-2-0.9-2-2v-29.5
				c0-1.1,0.9-2,2-2h29.83C371.585,306.335,372.475,307.235,372.475,308.335z M368.475,335.835v-25.5h-4.33v25.5H368.475z
				 M360.145,335.835v-25.5h-17.5v25.5h9.83v-4.67c0-1.1,0.9-2,2-2c1.11,0,2,0.9,2,2v4.67H360.145z M332.335,353.725v-7.43h-19v7.43
				H332.335z M332.335,342.295v-25.48h-19v25.48H332.335z"/>
			<rect x="364.145" y="310.335" fill="#CCCCCC" width="4.33" height="25.5"/>
			<path fill="#CCCCCC" d="M360.145,310.335v25.5h-3.67v-4.67c0-1.1-0.89-2-2-2c-1.1,0-2,0.9-2,2v4.67h-9.83v-25.5H360.145z"/>
			<path fill="#EF472E" d="M332.335,346.295v7.43h-19v-7.43H332.335z M329.585,349.785c0-0.53-0.22-1.04-0.59-1.41
				c-0.74-0.75-2.08-0.75-2.83,0c-0.37,0.37-0.58,0.88-0.58,1.41s0.21,1.04,0.58,1.42c0.38,0.37,0.89,0.58,1.42,0.58
				c0.52,0,1.04-0.21,1.41-0.59C329.365,350.825,329.585,350.315,329.585,349.785z M320.085,349.785c0-0.52-0.22-1.04-0.59-1.41
				c-0.74-0.75-2.08-0.75-2.83,0c-0.37,0.37-0.58,0.89-0.58,1.41c0,0.53,0.21,1.04,0.58,1.42c0.38,0.37,0.89,0.58,1.42,0.58
				c0.52,0,1.04-0.21,1.41-0.59C319.865,350.825,320.085,350.315,320.085,349.785z"/>
			<path fill="#F2F2F2" d="M332.335,316.815v25.48h-19v-25.48H332.335z M330.995,339.425v-7.26c0-0.83-0.67-1.5-1.5-1.5h-4.48
				c-0.83,0-1.5,0.67-1.5,1.5c0,0.83,0.67,1.5,1.5,1.5h2.98v5.76c0,0.83,0.67,1.5,1.5,1.5
				C330.325,340.925,330.995,340.255,330.995,339.425z M330.995,323.225v-3.63c0-0.83-0.67-1.5-1.5-1.5h-4.48
				c-0.83,0-1.5,0.67-1.5,1.5s0.67,1.5,1.5,1.5h2.98v0.63h-2.98c-0.83,0-1.5,0.67-1.5,1.5v3.63c0,0.83,0.67,1.5,1.5,1.5h4.48
				c0.83,0,1.5-0.67,1.5-1.5c0-0.83-0.67-1.5-1.5-1.5h-2.98v-0.63h2.98C330.325,324.725,330.995,324.055,330.995,323.225z
				 M322.925,326.855v-7.26c0-0.83-0.67-1.5-1.5-1.5c-0.83,0-1.5,0.67-1.5,1.5v7.26c0,0.83,0.67,1.5,1.5,1.5
				C322.255,328.355,322.925,327.685,322.925,326.855z M322.095,336.635c0-1.03-0.66-1.47-1.47-1.47c-0.82,0-1.48,0.66-1.48,1.47
				c0-0.81-0.66-1.47-1.47-1.47c-0.82,0-1.48,0.42-1.48,1.47c0,1.8,2.95,3.43,2.95,3.43S322.095,338.465,322.095,336.635z"/>
			<path fill="#03373D" d="M330.995,332.165v7.26c0,0.83-0.67,1.5-1.5,1.5c-0.83,0-1.5-0.67-1.5-1.5v-5.76h-2.98
				c-0.83,0-1.5-0.67-1.5-1.5c0-0.83,0.67-1.5,1.5-1.5h4.48C330.325,330.665,330.995,331.335,330.995,332.165z"/>
			<path fill="#03373D" d="M330.995,319.595v3.63c0,0.83-0.67,1.5-1.5,1.5h-2.98v0.63h2.98c0.83,0,1.5,0.67,1.5,1.5
				c0,0.83-0.67,1.5-1.5,1.5h-4.48c-0.83,0-1.5-0.67-1.5-1.5v-3.63c0-0.83,0.67-1.5,1.5-1.5h2.98v-0.63h-2.98
				c-0.83,0-1.5-0.67-1.5-1.5s0.67-1.5,1.5-1.5h4.48C330.325,318.095,330.995,318.765,330.995,319.595z"/>
			<path fill="#03373D" d="M328.995,348.375c0.37,0.37,0.59,0.88,0.59,1.41s-0.22,1.04-0.59,1.41c-0.37,0.38-0.89,0.59-1.41,0.59
				c-0.53,0-1.04-0.21-1.42-0.58c-0.37-0.38-0.58-0.89-0.58-1.42s0.21-1.04,0.58-1.41
				C326.915,347.625,328.255,347.625,328.995,348.375z"/>
			<path fill="#03373D" d="M322.925,319.595v7.26c0,0.83-0.67,1.5-1.5,1.5c-0.83,0-1.5-0.67-1.5-1.5v-7.26c0-0.83,0.67-1.5,1.5-1.5
				C322.255,318.095,322.925,318.765,322.925,319.595z"/>
			<path fill="#03373D" d="M320.625,335.165c0.81,0,1.47,0.44,1.47,1.47c0,1.83-2.95,3.43-2.95,3.43s-2.95-1.63-2.95-3.43
				c0-1.05,0.66-1.47,1.48-1.47c0.81,0,1.47,0.66,1.47,1.47C319.145,335.825,319.805,335.165,320.625,335.165z"/>
			<path fill="#03373D" d="M319.495,348.375c0.37,0.37,0.59,0.89,0.59,1.41c0,0.53-0.22,1.04-0.59,1.41
				c-0.37,0.38-0.89,0.59-1.41,0.59c-0.53,0-1.04-0.21-1.42-0.58c-0.37-0.38-0.58-0.89-0.58-1.42c0-0.52,0.21-1.04,0.58-1.41
				C317.415,347.625,318.755,347.625,319.495,348.375z"/>
		</g>
		<g>
		</g>
	</g>
</g>
<g>
	<g id="XMLID_13_">
		<g>
			<path fill="#03373D" d="M488.105,307.835v60c0,1.1-0.9,2-2,2h-34.92c-1.1,0-2-0.9-2-2v-60c0-1.1,0.9-2,2-2h34.92
				C487.205,305.835,488.105,306.735,488.105,307.835z M484.105,365.835v-6h-12.08h-18.84v6h18.84H484.105z M484.105,355.835v-21.03
				v-19.22h-30.92v19.22v21.03H484.105z M484.105,311.585v-1.75h-30.92v1.75H484.105z"/>
			<path fill="#EF472E" d="M484.105,359.835v6h-12.08v-1c1.1,0,2-0.9,2-2s-0.9-2-2-2v-1H484.105z"/>
			<path fill="#CCCCCC" d="M484.105,334.805v21.03h-30.92v-21.03h2.46c0,7.17,5.83,13,13,13c7.17,0,13-5.83,13-13H484.105z"/>
			<path fill="#CCCCCC" d="M484.105,315.585v19.22h-2.46c0-7.17-5.83-13-13-13c-7.17,0-13,5.83-13,13h-2.46v-19.22H484.105z"/>
			<rect x="453.185" y="309.835" fill="#EF472E" width="30.92" height="1.75"/>
			<path fill="#03373D" d="M468.645,321.805c7.17,0,13,5.83,13,13c0,7.17-5.83,13-13,13c-7.17,0-13-5.83-13-13
				C455.645,327.635,461.475,321.805,468.645,321.805z M477.645,334.805c0-4.96-4.04-9-9-9c-4.96,0-9,4.04-9,9c0,4.96,4.04,9,9,9
				C473.605,343.805,477.645,339.765,477.645,334.805z"/>
			<polygon fill="#EF472E" points="474.555,332.435 474.555,337.175 471.015,337.175 471.015,340.715 466.275,340.715 
				466.275,337.175 462.735,337.175 462.735,332.435 466.275,332.435 466.275,328.895 471.015,328.895 471.015,332.435 			"/>
			<path fill="#03373D" d="M472.025,360.835c1.1,0,2,0.9,2,2s-0.9,2-2,2h-6.88c-1.1,0-2-0.9-2-2s0.9-2,2-2H472.025z"/>
			<path fill="#EF472E" d="M472.025,364.835v1h-18.84v-6h18.84v1h-6.88c-1.1,0-2,0.9-2,2s0.9,2,2,2H472.025z"/>
		</g>
		<g>
		</g>
	</g>
</g>
<g id="XMLID_7_">
	<g>
		<path fill="#03373D" d="M616.245,338.245v13.41c0,4.08-2.83,7.51-6.64,8.41v7.86c0,1.11-0.89,2-2,2h-21.79c-1.1,0-2-0.89-2-2
			v-8.13l-4.95-4.05c-2.31-1.89-3.63-4.69-3.63-7.67v-12.07c0-3.28,2.67-5.96,5.95-5.96c0.64,0,1.26,0.11,1.84,0.3v-4.27
			c-1.04-0.08-1.86-0.93-1.86-1.99v-2.04c-0.2,0.3-0.42,0.58-0.64,0.81c-1.08,1.1-2.46,1.7-3.76,1.7c-0.54,0-1.06-0.1-1.54-0.32
			c-1.4-0.61-2.18-1.98-2.1-3.67c0.05-0.91,0.34-1.69,0.81-2.33c-0.53-0.53-0.93-1.16-1.09-1.86c-0.35-1.48,0.27-2.93,1.67-3.88
			c1.13-0.76,2.35-0.97,3.54-0.61c1.3,0.39,2.34,1.41,3.11,2.43v-1.23c0-1.07,0.84-1.94,1.9-1.99c0.34-2.96,2.86-5.26,5.91-5.26
			c3.06,0,5.58,2.31,5.92,5.28c0.97,0.13,1.72,0.96,1.72,1.97v11c0,1-0.73,1.82-1.68,1.97v0.38c0.52-0.16,1.08-0.25,1.66-0.25
			c2.13,0,3.98,1.19,4.95,2.92c0.73-0.34,1.54-0.53,2.39-0.53c2.75,0,5.05,1.97,5.56,4.57c0.46-0.13,0.93-0.22,1.43-0.22
			C613.865,332.925,616.245,335.305,616.245,338.245z M612.245,351.655v-13.41c0-0.73-0.59-1.32-1.32-1.32
			c-0.73,0-1.32,0.59-1.32,1.32v2.11c0,1.1-0.89,2-2,2c-1.1,0-2-0.9-2-2v-6.11c0-0.92-0.75-1.67-1.67-1.67s-1.67,0.75-1.67,1.67
			v2.33c0,1.1-0.89,2-2,2c-1.1,0-2-0.9-2-2v-4.72c0-0.92-0.74-1.67-1.67-1.67c-0.92,0-1.66,0.75-1.66,1.67v4.21c0,1.11-0.9,2-2,2
			c-1.11,0-2-0.89-2-2v-9.98h-3.85v15.58c0,1.1-0.84,2-1.95,2c-0.02,0-0.03-0.01-0.05-0.01c-0.02,0-0.04,0.01-0.06,0.01
			c-1.11,0-2-0.9-2-2v-6.3c-0.27-0.76-0.99-1.32-1.84-1.32c-1.08,0-1.95,0.88-1.95,1.96v12.07c0,1.78,0.79,3.44,2.16,4.57l5.69,4.66
			c0.46,0.38,0.73,0.95,0.73,1.55v7.07h17.79v-7.63c0-1.1,0.9-2,2-2C610.165,356.295,612.245,354.215,612.245,351.655z
			 M592.615,322.085v-3.3l-7.45,2.78v0.52H592.615z M592.615,315.585v-0.5h-7.45v3.28L592.615,315.585z M587.155,311.085h3.64
			c-0.28-0.73-0.99-1.25-1.82-1.25C588.145,309.835,587.435,310.355,587.155,311.085z M579.215,319.375
			c-0.24-0.02-0.48-0.03-0.72-0.03c-0.77,0-1.51,0.11-1.95,0.44c-0.19,0.14-0.39,0.36-0.42,0.93c-0.03,0.63,0.22,0.74,0.3,0.78
			c0.42,0.18,1.25-0.01,1.95-0.73C578.665,320.465,578.955,319.945,579.215,319.375z M576.665,316.555c0.76-0.18,1.55-0.22,2.27-0.2
			c-0.5-0.73-1.13-1.41-1.74-1.6c-0.08-0.02-0.17-0.04-0.28-0.04c-0.18,0-0.41,0.06-0.72,0.27c-0.52,0.35-0.45,0.61-0.43,0.7
			C575.835,315.985,576.165,316.315,576.665,316.555z"/>
		<path fill="#F2F2F2" d="M612.245,338.245v13.41c0,2.56-2.08,4.64-4.64,4.64c-1.1,0-2,0.9-2,2v7.63h-17.79v-7.07
			c0-0.6-0.27-1.17-0.73-1.55l-5.69-4.66c-1.37-1.13-2.16-2.79-2.16-4.57v-12.07c0-1.08,0.87-1.96,1.95-1.96
			c0.85,0,1.57,0.56,1.84,1.32v6.3c0,1.1,0.89,2,2,2c0.02,0,0.04-0.01,0.06-0.01c0.02,0,0.03,0.01,0.05,0.01c1.11,0,1.95-0.9,1.95-2
			v-15.58h3.85v9.98c0,1.11,0.89,2,2,2c1.1,0,2-0.89,2-2v-4.21c0-0.92,0.74-1.67,1.66-1.67c0.93,0,1.67,0.75,1.67,1.67v4.72
			c0,1.1,0.9,2,2,2c1.11,0,2-0.9,2-2v-2.33c0-0.92,0.75-1.67,1.67-1.67s1.67,0.75,1.67,1.67v6.11c0,1.1,0.9,2,2,2c1.11,0,2-0.9,2-2
			v-2.11c0-0.73,0.59-1.32,1.32-1.32C611.655,336.925,612.245,337.515,612.245,338.245z"/>
		<polygon fill="#EF472E" points="592.615,318.785 592.615,322.085 585.165,322.085 585.165,321.565 		"/>
		<polygon fill="#EF472E" points="592.615,315.085 592.615,315.585 585.165,318.365 585.165,315.085 		"/>
		<path fill="#F2F2F2" d="M590.795,311.085h-3.64c0.28-0.73,0.99-1.25,1.82-1.25C589.805,309.835,590.515,310.355,590.795,311.085z"
			/>
	</g>
	<g>
	</g>
</g>
</svg>
