<?xml version="1.0" encoding="utf-8"?>
<!-- Generator: Adobe Illustrator 19.2.1, SVG Export Plug-In . SVG Version: 6.00 Build 0)  -->
<!DOCTYPE svg PUBLIC "-//W3C//DTD SVG 1.1//EN" "http://www.w3.org/Graphics/SVG/1.1/DTD/svg11.dtd">
<svg version="1.1" id="Icons" xmlns="http://www.w3.org/2000/svg" xmlns:xlink="http://www.w3.org/1999/xlink" x="0px" y="0px"
	 width="680px" height="420px" viewBox="0 0 680 420" enable-background="new 0 0 680 420" xml:space="preserve">
<path fill="#1D1D1B" d="M228.104,55.379h-0.955l-0.784-3.937c-0.187-0.936-1.007-1.609-1.961-1.609h-26.366
	c-0.954,0-1.775,0.674-1.961,1.609l-0.784,3.937h-0.955c-1.104,0-2,0.896-2,2v11.96c0,1.104,0.896,2,2,2h1.701v40.494
	c0,1.104,0.896,2,2,2h26.366c1.104,0,2-0.896,2-2V71.34h1.701c1.104,0,2-0.896,2-2v-11.96
	C230.104,56.275,229.208,55.379,228.104,55.379z M226.104,59.379v7.96h-4.146v-7.96H226.104z M196.336,67.34v-7.96h4.146v7.96
	H196.336z M204.483,59.379h4.737v7.96h-4.737V59.379z M213.22,59.379h4.737v7.96h-4.737V59.379z M199.678,53.833h23.085l0.308,1.546
	h-23.7L199.678,53.833z M200.037,81.283h14.914v14.62h-14.914V81.283z M222.403,109.833h-22.366v-9.93h16.914c1.104,0,2-0.895,2-2
	v-18.62c0-1.104-0.896-2-2-2h-16.914V71.34h22.366V109.833z"/>
<path fill="#1D1D1B" d="M365.679,51.968c-1.058-1.213-2.587-1.908-4.197-1.908h-2.689c-1.104,0-2,0.896-2,2v1.575
	c0,1.105,0.896,2,2,2c0.959,0,1.76-0.674,1.955-1.575h0.734c0.621,0,1.007,0.337,1.183,0.538s0.457,0.63,0.373,1.245l-2.487,18.172
	c-0.489,3.575-3.58,6.271-7.188,6.271h-9.71c-3.608,0-6.698-2.696-7.187-6.271l-2.488-18.172c-0.084-0.615,0.197-1.043,0.373-1.244
	c0.175-0.201,0.562-0.538,1.183-0.538h0.849c0.195,0.9,0.996,1.575,1.955,1.575c1.104,0,2-0.895,2-2V52.06c0-1.104-0.896-2-2-2
	h-2.804c-1.609,0-3.139,0.695-4.197,1.908c-1.058,1.212-1.54,2.822-1.321,4.417l2.488,18.172c0.358,2.621,1.774,4.785,3.446,6.645
	c2.918,3.245,10.56,13.9,10.56,13.9v6.952c0,4.415-3.592,8.006-8.006,8.006h-11.522c-4.415,0-8.006-3.592-8.006-8.006V91.581
	c3.553-0.896,6.194-4.11,6.194-7.937c0-4.519-3.676-8.194-8.194-8.194s-8.194,3.676-8.194,8.194c0,3.827,2.641,7.041,6.194,7.937
	v10.473c0,6.62,5.386,12.006,12.006,12.006h11.522c6.62,0,12.006-5.386,12.006-12.006v-6.952c0,0,7.642-10.657,10.561-13.902
	c1.671-1.859,3.086-4.022,3.445-6.643L367,56.385C367.219,54.79,366.737,53.18,365.679,51.968z M312.778,83.644
	c0-2.313,1.881-4.194,4.194-4.194s4.194,1.881,4.194,4.194c0,2.312-1.881,4.194-4.194,4.194S312.778,85.956,312.778,83.644z
	 M348.508,91.121l-5.206-6.853c0.117,0.003,10.294,0.003,10.412,0L348.508,91.121z"/>
<g>
	<path fill="#1D1D1B" d="M114.727,74h-1.304V52.437c0-1.104-0.896-2-2-2H62.393c-1.104,0-2,0.896-2,2v4.729h-2c-1.104,0-2,0.896-2,2
		v7.583h-1.667c-1.104,0-2,0.896-2,2v43.333c0,1.104,0.896,2,2,2h60c1.104,0,2-0.896,2-2V76C116.727,74.896,115.831,74,114.727,74z
		 M64.393,54.437h45.029V74h-3V59.166c0-1.104-0.896-2-2-2H64.393V54.437z M60.393,61.166h42.029V74H79.197L72.1,67.296
		c-0.372-0.351-0.863-0.546-1.374-0.546H60.393V61.166z M112.727,110.083h-56V70.75h13.205l7.097,6.705
		C77.399,77.805,77.891,78,78.401,78h34.325V110.083z"/>
	<path fill="#1D1D1B" d="M71.727,93.833c0,7.168,5.832,13,13,13s13-5.832,13-13s-5.832-13-13-13S71.727,86.665,71.727,93.833z
		 M84.727,84.833c4.962,0,9,4.037,9,9s-4.038,9-9,9s-9-4.037-9-9S79.764,84.833,84.727,84.833z"/>
	<polygon fill="#1D1D1B" points="82.241,100.021 87.212,100.021 87.212,96.319 90.914,96.318 90.914,91.347 87.212,91.347 
		87.212,87.646 82.241,87.646 82.241,91.348 78.539,91.348 78.539,96.32 82.241,96.319 	"/>
</g>
<g>
	<path fill="#1D1D1B" d="M468.643,97.5c6.341,0,11.5-5.159,11.5-11.5c0-6.341-5.159-11.5-11.5-11.5s-11.5,5.159-11.5,11.5
		C457.143,92.342,462.302,97.5,468.643,97.5z M468.643,78.5c4.136,0,7.5,3.365,7.5,7.5c0,4.136-3.364,7.5-7.5,7.5
		s-7.5-3.364-7.5-7.5C461.143,81.865,464.507,78.5,468.643,78.5z"/>
	<path fill="#1D1D1B" d="M496.45,79.333h-3.182V68.501c0-1.105-0.896-2-2-2h-6.927l-3.489-6.518
		c-1.548-2.894-4.55-4.692-7.833-4.692h-8.752c-3.283,0-6.285,1.798-7.833,4.692l-3.489,6.518h-6.927c-1.104,0-2,0.895-2,2v10.832
		h-3.182c-2.329,0-4.224,1.895-4.224,4.224v22.469c0,2.329,1.895,4.224,4.224,4.224h3.264c0.392,2.404,2.467,4.25,4.98,4.25h39.125
		c2.513,0,4.588-1.846,4.98-4.25h3.264c2.329,0,4.224-1.895,4.224-4.224V83.557C500.674,81.228,498.779,79.333,496.45,79.333z
		 M496.45,83.333c0.124,0,0.224,0.101,0.224,0.224v4.943h-3.406v-5.167H496.45z M459.96,61.87c0.852-1.591,2.501-2.579,4.307-2.579
		h8.752c1.805,0,3.455,0.988,4.307,2.58l2.479,4.63h-22.322L459.96,61.87z M448.018,70.501h41.25v28.957
		c0,1.126-0.916,2.042-2.042,2.042H450.06c-1.126,0-2.042-0.916-2.042-2.042V70.501z M440.836,83.333h3.182v5.167h-3.406v-4.943
		C440.612,83.434,440.712,83.333,440.836,83.333z M440.612,106.026V92.501h3.406v6.958v6.792h-3.182
		C440.712,106.25,440.612,106.15,440.612,106.026z M488.206,110.5h-39.125c-0.586,0-1.062-0.477-1.062-1.062v-4.3
		c0.639,0.23,1.324,0.363,2.042,0.363h37.167c0.717,0,1.403-0.132,2.042-0.363v4.3C489.268,110.023,488.792,110.5,488.206,110.5z
		 M496.45,106.25h-3.182v-6.792v-6.958h3.406v13.525C496.674,106.15,496.574,106.25,496.45,106.25z"/>
	<polygon fill="#1D1D1B" points="466.497,91.344 470.79,91.344 470.79,88.147 473.987,88.147 473.987,83.853 470.79,83.854 
		470.79,80.656 466.497,80.656 466.497,83.854 463.3,83.854 463.3,88.148 466.497,88.147 	"/>
</g>
<g>
	<path fill="#1D1D1B" d="M585.25,53.833h8.95c1.104,0,2-0.896,2-2s-0.896-2-2-2h-8.95c-1.104,0-2,0.896-2,2
		S584.145,53.833,585.25,53.833z"/>
	<path fill="#1D1D1B" d="M612.465,63.538h-14.732v-6.833c0-1.105-0.896-2-2-2h-12.017c-1.104,0-2,0.895-2,2v26.743
		c0,1.104,0.896,2,2,2h0.008v6.135c0,1.104,0.896,2,2,2h8c1.104,0,2-0.896,2-2v-6.135h0.008c1.104,0,2-0.896,2-2V82.53
		c0.333,0.054,0.673,0.089,1.021,0.089c3.524,0,6.391-2.867,6.391-6.391c0-0.438-0.045-0.866-0.129-1.279h6.777
		c1.492,0,2.706,1.214,2.706,2.706v22.061c0,1.492-1.214,2.706-2.706,2.706h-8.485v-4.383c0-1.105-0.896-2-2-2h-23.165
		c-1.104,0-2,0.895-2,2v4.383h-1.738c-1.104,0-2,0.896-2,2v7.411c0,1.104,0.896,2,2,2h38.061c7.784,0,14.117-6.333,14.117-14.117
		V77.655C626.582,69.871,620.249,63.538,612.465,63.538z M585.716,58.705h8.017v13.583c-0.855,1.087-1.37,2.454-1.37,3.94
		s0.515,2.854,1.37,3.94v1.279h-0.008h-8h-0.008V58.705z M591.724,89.583h-4v-4.135h4V89.583z M598.753,78.619
		c-1.318,0-2.391-1.072-2.391-2.391s1.072-2.391,2.391-2.391s2.391,1.072,2.391,2.391S600.072,78.619,598.753,78.619z
		 M580.142,100.039h19.165v2.383h-19.165V100.039z M622.582,99.716c0,5.579-4.539,10.117-10.117,10.117h-36.061v-3.411h35.388
		c3.698,0,6.706-3.008,6.706-6.706V77.655c0-3.698-3.008-6.706-6.706-6.706h-9.443c-1.025-0.701-2.263-1.112-3.596-1.112
		c-0.348,0-0.688,0.036-1.021,0.089v-2.389h14.732c5.579,0,10.117,4.538,10.117,10.117V99.716z"/>
</g>
<g>
	<path fill="#1D1D1B" d="M114.55,181.647H54.736c-1.154,0-2.093,0.939-2.093,2.093v54.633c0,1.104,0.896,2,2,2h60
		c1.104,0,2-0.896,2-2V183.74C116.643,182.586,115.704,181.647,114.55,181.647z M112.643,224.02h-20v-38.373h20V224.02z
		 M56.643,207.012H67.31c0.702,0,1.353-0.368,1.714-0.97l3.119-5.189l4.174,13.408c0.246,0.788,0.95,1.345,1.773,1.401
		c0.046,0.003,0.092,0.005,0.137,0.005c0.771,0,1.479-0.445,1.811-1.151l3.21-6.847h5.396v16.351h-32V207.012z M56.643,185.647h32
		v18.022h-6.667c-0.776,0-1.481,0.449-1.811,1.151l-1.562,3.331l-3.968-12.745c-0.234-0.752-0.889-1.297-1.671-1.392
		c-0.78-0.093-1.546,0.28-1.953,0.956l-4.834,8.043h-9.535V185.647z M56.643,236.373v-8.353h56v8.353H56.643z"/>
	<path fill="#1D1D1B" d="M100.893,213.833h3.5c1.104,0,2-0.896,2-2s-0.896-2-2-2h-3.5c-1.104,0-2,0.896-2,2
		S99.789,213.833,100.893,213.833z"/>
	<path fill="#1D1D1B" d="M105.893,216.5h-6.5c-1.104,0-2,0.896-2,2c0,1.105,0.896,2,2,2h6.5c1.104,0,2-0.895,2-2
		C107.893,217.395,106.998,216.5,105.893,216.5z"/>
	<path fill="#1D1D1B" d="M60.893,230.923c-0.37,0.37-0.58,0.88-0.58,1.41s0.21,1.04,0.58,1.41c0.38,0.38,0.89,0.59,1.42,0.59
		c0.52,0,1.04-0.21,1.41-0.59c0.37-0.37,0.59-0.88,0.59-1.41s-0.22-1.04-0.59-1.41C62.983,230.173,61.643,230.173,60.893,230.923z"
		/>
	<path fill="#1D1D1B" d="M68.063,230.923c-0.37,0.37-0.59,0.88-0.59,1.41s0.22,1.04,0.59,1.41c0.37,0.38,0.89,0.59,1.41,0.59
		c0.53,0,1.05-0.21,1.42-0.59c0.37-0.37,0.58-0.88,0.58-1.41s-0.21-1.04-0.58-1.41C70.143,230.173,68.803,230.173,68.063,230.923z"
		/>
	<path fill="#1D1D1B" d="M101.675,204.923c0.301,0.166,0.634,0.25,0.968,0.25c0.329,0,0.658-0.082,0.957-0.244
		c0.784-0.427,7.66-4.32,7.66-9.448c0-3.175-2.133-5.308-5.308-5.308c-1.25,0-2.4,0.434-3.308,1.16
		c-0.908-0.726-2.058-1.16-3.308-1.16c-3.225,0-5.308,2.083-5.308,5.308C94.027,200.548,100.893,204.49,101.675,204.923z
		 M99.335,194.173c0.721,0,1.308,0.586,1.308,1.308c0,1.104,0.896,2,2,2s2-0.896,2-2c0-0.722,0.587-1.308,1.308-1.308
		c1.1,0,1.308,0.459,1.308,1.308c0,1.841-2.687,4.101-4.614,5.357c-2.129-1.392-4.618-3.674-4.618-5.357
		C98.027,194.594,98.223,194.173,99.335,194.173z"/>
</g>
<path fill="#1D1D1B" d="M360.901,214.432h9.742c1.104,0,2-0.896,2-2v-11.557c0-1.105-0.896-2-2-2h-2.74v-6.188c0-1.104-0.896-2-2-2
	h-35.087c-1.104,0-2,0.896-2,2v6.188h-0.764l-16.519-8.197c-0.621-0.308-1.355-0.273-1.943,0.092
	c-0.588,0.365-0.946,1.008-0.946,1.7v12.591c0,0.796,0.472,1.517,1.202,1.834l16.939,7.371c0.251,0.11,0.523,0.167,0.798,0.167
	h3.147l10.196,4.57l-10.335,4.633H313.92c-1.104,0-2,0.896-2,2v3.408c-1.92,0.79-3.277,2.676-3.277,4.877
	c0,2.91,2.367,5.276,5.277,5.276c2.909,0,5.276-2.367,5.276-5.276c0-2.201-1.357-4.087-3.276-4.877v-1.408h49.446v1.408
	c-1.919,0.79-3.276,2.676-3.276,4.877c0,2.91,2.367,5.276,5.276,5.276c2.91,0,5.277-2.367,5.277-5.276
	c0-2.202-1.357-4.087-3.277-4.877v-3.408c0-1.104-0.896-2-2-2h-6.327l-10.335-4.633L360.901,214.432z M313.92,235.197
	c-0.704,0-1.277-0.573-1.277-1.276c0-0.704,0.573-1.277,1.277-1.277c0.704,0,1.276,0.573,1.276,1.277
	C315.196,234.624,314.624,235.197,313.92,235.197z M367.366,235.197c-0.704,0-1.276-0.573-1.276-1.276
	c0-0.704,0.573-1.277,1.276-1.277c0.704,0,1.277,0.573,1.277,1.277C368.643,234.624,368.07,235.197,367.366,235.197z
	 M332.815,194.687h31.087v4.188h-31.087V194.687z M312.643,203.75v-8.056l14.05,6.972c0.276,0.137,0.581,0.208,0.889,0.208h41.061
	v7.557h-40.645L312.643,203.75z M340.509,214.432h10.614l-5.307,2.379L340.509,214.432z M351.261,223.635H340.37l5.446-2.441
	L351.261,223.635z"/>
<g>
	<path fill="#1D1D1B" d="M458.346,198.262c-5.829,0-10.571,4.742-10.571,10.571s4.742,10.571,10.571,10.571
		s10.571-4.742,10.571-10.571S464.175,198.262,458.346,198.262z M458.346,215.405c-3.624,0-6.571-2.948-6.571-6.571
		s2.948-6.571,6.571-6.571s6.571,2.948,6.571,6.571S461.969,215.405,458.346,215.405z"/>
	<polygon fill="#1D1D1B" points="460.282,204.011 456.409,204.011 456.409,206.897 453.524,206.897 453.524,210.771 456.409,210.77 
		456.409,213.655 460.282,213.655 460.282,210.77 463.167,210.77 463.167,206.896 460.282,206.896 	"/>
	<path fill="#1D1D1B" d="M497.264,211.43l-3.518-3.057l-4.339-9.696c-1.55-3.462-5.003-5.7-8.796-5.7h-41.968c-1.104,0-2,0.896-2,2
		v31.951c0,1.105,0.896,2,2,2h5.061c0.264,3.689,3.343,6.612,7.099,6.612s6.834-2.923,7.099-6.612h20.554
		c0.264,3.689,3.343,6.612,7.099,6.612s6.834-2.923,7.099-6.612h5.991c1.104,0,2-0.895,2-2v-8.085
		C500.643,215.998,499.412,213.296,497.264,211.43z M485.756,200.311l3.259,7.283h-7.524v-10.543
		C483.352,197.345,484.972,198.558,485.756,200.311z M450.803,231.541c-1.723,0-3.125-1.402-3.125-3.125s1.402-3.125,3.125-3.125
		s3.125,1.402,3.125,3.125S452.525,231.541,450.803,231.541z M485.554,231.541c-1.723,0-3.125-1.402-3.125-3.125
		s1.402-3.125,3.125-3.125s3.125,1.402,3.125,3.125S487.276,231.541,485.554,231.541z M496.643,224.928h-4.884
		c-1.223-2.167-3.544-3.637-6.206-3.637s-4.983,1.469-6.206,3.637h-22.339c-1.223-2.167-3.544-3.637-6.206-3.637
		s-4.983,1.469-6.206,3.637h-3.954v-27.951h36.848v12.617c0,1.104,0.896,2,2,2h11.863l3.287,2.855
		c1.272,1.106,2.002,2.707,2.002,4.394V224.928z"/>
</g>
<g>
	<path fill="#1D1D1B" d="M618.392,184.321c-4.943,0-8.965,4.022-8.965,8.965v39.535c0,2.737-2.227,4.965-4.965,4.965h-12.109
		c-2.738,0-4.965-2.228-4.965-4.965v-8.768c2.216-0.109,4.426-0.409,6.613-0.881v3.744c0,1.104,0.896,2,2,2s2-0.896,2-2v-4.819
		c1.07-0.345,2.133-0.724,3.183-1.159c0.748-0.31,1.235-1.039,1.235-1.848v-36.22c0-0.809-0.487-1.538-1.235-1.848
		c-10.187-4.22-21.407-4.22-31.592-0.001c-0.748,0.31-1.235,1.039-1.235,1.848v36.219c0,0.809,0.487,1.539,1.235,1.848
		c1.05,0.435,2.113,0.813,3.183,1.159v4.819c0,1.104,0.896,2,2,2s2-0.896,2-2v-3.744c2.187,0.471,4.396,0.772,6.613,0.881v8.768
		c0,4.943,4.022,8.965,8.965,8.965h12.109c4.943,0,8.965-4.022,8.965-8.965v-39.535c0-2.738,2.227-4.965,4.965-4.965
		s4.965,2.227,4.965,4.965v46.5c0,1.104,0.896,2,2,2s2-0.896,2-2v-46.5C627.357,188.343,623.335,184.321,618.392,184.321z
		 M572.357,184.232c8.452-3.162,17.61-3.162,26.062,0v33.497c-8.452,3.161-17.61,3.161-26.062-0.001V184.232z"/>
	<path fill="#1D1D1B" d="M595.302,213.92c0.375-0.375,0.586-0.884,0.586-1.414v-22.389c0-1.104-0.896-2-2-2l-17,0
		c-0.53,0-1.039,0.211-1.414,0.586s-0.586,0.884-0.586,1.414v22.39c0,1.104,0.896,2,2,2h17
		C594.418,214.506,594.927,214.295,595.302,213.92z M591.888,210.506h-13v-18.39l13,0V210.506z"/>
	<path fill="#1D1D1B" d="M585.388,207.751c2.757,0,5-2.243,5-5c0-3.448-3.546-7.02-3.951-7.416c-0.582-0.569-1.51-0.571-2.093-0.005
		c-0.405,0.392-3.957,3.933-3.957,7.421C580.388,205.508,582.631,207.751,585.388,207.751z M585.388,198.654
		c0.999,1.248,2,2.887,2,4.098c0,1.103-0.897,2-2,2s-2-0.897-2-2C583.388,201.453,584.463,199.804,585.388,198.654z"/>
</g>
<path fill="#1D1D1B" d="M243.879,233.097c-0.009-0.015-0.019-0.03-0.029-0.044l-17.341-25.854v-17.456h2.699c1.104,0,2-0.896,2-2
	v-5.909c0-1.104-0.896-2-2-2h-23.13c-1.104,0-2,0.896-2,2v5.909c0,1.104,0.896,2,2,2h2.699v17.456l-6.344,9.459v-15.673h2.057
	c1.104,0,2-0.896,2-2v-5.719c0-1.104-0.896-2-2-2h-21.695c-1.104,0-2,0.896-2,2v5.719c0,1.104,0.896,2,2,2h2.057v32.657
	c0,4.831,3.944,8.76,8.791,8.76c1.087,0,2.124-0.207,3.085-0.568h42.34c2.106,0,3.971-1.102,4.986-2.947
	C245.071,237.041,245.005,234.877,243.879,233.097z M212.438,208.921c0.221-0.33,0.339-0.717,0.339-1.114v-20.064
	c0-1.104-0.896-2-2-2h-2.699v-1.909h19.13v1.909h-2.699c-1.104,0-2,0.896-2,2v20.064c0,0.397,0.118,0.785,0.339,1.114l6.246,9.312
	h-22.901L212.438,208.921z M184.795,196.984v-1.719h17.695v1.719h-2.057c-1.104,0-2,0.896-2,2v9.664h-9.582v-9.664
	c0-1.104-0.896-2-2-2H184.795z M188.852,233.641v-20.993h9.582v20.993c0,2.625-2.149,4.76-4.791,4.76
	S188.852,236.266,188.852,233.641z M240.551,236.957c-0.145,0.263-0.58,0.876-1.482,0.876h-37.71
	c0.684-1.246,1.075-2.674,1.075-4.192v-9.803l1.076-1.605h28.267l8.734,13.022C240.977,236.01,240.695,236.696,240.551,236.957z"/>
<g>
	<path fill="#1D1D1B" d="M88.563,348.743c-0.37,0.38-0.59,0.89-0.59,1.42c0,0.52,0.22,1.04,0.59,1.41c0.37,0.37,0.89,0.59,1.41,0.59
		c0.53,0,1.05-0.22,1.42-0.59c0.37-0.37,0.58-0.89,0.58-1.41c0-0.53-0.21-1.04-0.58-1.42
		C90.643,348.003,89.313,348.003,88.563,348.743z"/>
	<path fill="#1D1D1B" d="M77.003,327.193c0.4,0,0.79-0.16,1.06-0.44c0.28-0.28,0.44-0.66,0.44-1.06c0-0.39-0.16-0.78-0.44-1.06
		c-0.56-0.56-1.56-0.56-2.12,0c-0.28,0.28-0.44,0.67-0.44,1.06c0,0.4,0.16,0.79,0.44,1.06
		C76.223,327.033,76.613,327.193,77.003,327.193z"/>
	<path fill="#1D1D1B" d="M73.733,328.693c0-0.39-0.16-0.78-0.44-1.06c-0.56-0.56-1.56-0.56-2.12,0c-0.28,0.28-0.44,0.67-0.44,1.06
		c0,0.4,0.16,0.79,0.44,1.06c0.28,0.28,0.67,0.44,1.06,0.44c0.4,0,0.78-0.16,1.06-0.44
		C73.573,329.483,73.733,329.093,73.733,328.693z"/>
	<path fill="#1D1D1B" d="M66.873,344.023c0-0.53-0.22-1.04-0.59-1.42c-0.74-0.74-2.08-0.74-2.83,0c-0.37,0.38-0.58,0.89-0.58,1.42
		c0,0.52,0.21,1.04,0.58,1.41c0.38,0.38,0.89,0.59,1.42,0.59c0.52,0,1.04-0.21,1.41-0.59
		C66.653,345.063,66.873,344.543,66.873,344.023z"/>
	<path fill="#1D1D1B" d="M97.053,328.853c-0.37,0.37-0.59,0.89-0.59,1.41c0,0.53,0.22,1.05,0.59,1.42c0.37,0.37,0.89,0.58,1.41,0.58
		c0.53,0,1.04-0.21,1.42-0.58c0.37-0.37,0.58-0.89,0.58-1.42c0-0.52-0.21-1.04-0.58-1.41
		C99.133,328.114,97.803,328.103,97.053,328.853z"/>
	<path fill="#1D1D1B" d="M76.924,337.719l-0.748-3.136c1.053-0.596,2.169-1.176,3.325-1.595c0.368-0.134,0.716-0.271,1.044-0.411
		l3.311,2.34c0.351,0.248,0.753,0.367,1.152,0.367c0.627,0,1.246-0.294,1.635-0.846c0.637-0.902,0.423-2.15-0.479-2.788
		l-2.093-1.479c0.31-0.38,0.558-0.786,0.749-1.223c0.696-1.593,0.458-3.289-0.114-5.038l2.751-1.629
		c0.95-0.562,1.265-1.789,0.702-2.74c-0.562-0.95-1.789-1.265-2.74-0.702l-2.35,1.392c-0.712-1.047-1.614-1.792-2.702-2.21
		c-1.042-0.4-2.092-0.434-3.066-0.3l-1.017-2.11c-0.479-0.995-1.674-1.414-2.67-0.934c-0.995,0.479-1.413,1.675-0.934,2.669
		l0.808,1.677c-1.174,0.571-2.242,1.239-3.209,1.983l-1.149-0.939c-0.855-0.699-2.115-0.573-2.814,0.283
		c-0.699,0.855-0.573,2.115,0.282,2.814l0.813,0.665c-0.954,1.238-1.682,2.596-2.146,4.044c-0.522,1.63-0.667,3.301-0.463,4.824
		l-2.949,1.276c-1.014,0.438-1.48,1.616-1.041,2.63c0.327,0.755,1.063,1.206,1.836,1.206c0.265,0,0.535-0.053,0.793-0.165
		l2.871-1.242c0.624,0.698,1.317,1.015,1.847,1.157c0.34,0.091,0.68,0.133,1.023,0.133c1.089,0,2.199-0.423,3.375-1.035l0.474,1.989
		c0.219,0.918,1.039,1.536,1.944,1.536c0.153,0,0.31-0.018,0.465-0.055C76.517,339.872,77.18,338.793,76.924,337.719z
		 M69.201,333.596c-0.482-0.858-0.769-2.491-0.125-4.502c0.507-1.582,2.009-4.541,6.374-6.586v0
		c0.796-0.373,2.452-1.149,3.484-0.753c0.485,0.186,0.903,0.687,1.241,1.488c0.659,1.562,1.333,3.297,0.98,4.104
		c-0.186,0.426-0.86,1.098-3.017,1.879c-2.079,0.754-3.901,1.835-5.509,2.789c-1.103,0.654-2.742,1.627-3.37,1.674
		C69.243,333.667,69.223,333.636,69.201,333.596z"/>
	<path fill="#1D1D1B" d="M91.993,319.209c0.366,0.005,3.598,0.147,4.431,3.374c0.233,0.902,1.045,1.5,1.935,1.5
		c0.166,0,0.334-0.021,0.501-0.064c1.069-0.276,1.712-1.367,1.437-2.437c-1.302-5.043-5.982-6.374-8.285-6.374
		c-0.003,0-0.007,0-0.01,0c-1.098,0.002-1.98,0.889-1.988,1.986C90.007,318.294,90.895,319.193,91.993,319.209z"/>
	<path fill="#1D1D1B" d="M107.797,332.823c-1.036-1.248-0.341-3.245-0.315-3.315c0.387-1.028-0.126-2.177-1.153-2.572
		c-1.031-0.397-2.188,0.117-2.585,1.148c-0.598,1.552-1.065,4.834,0.975,7.293c0.74,0.892,0.152,2.852-0.245,3.653
		c-0.5,0.985-0.106,2.188,0.879,2.688c0.29,0.147,0.599,0.217,0.903,0.217c0.729,0,1.433-0.401,1.785-1.096
		C108.291,340.348,110.397,335.956,107.797,332.823z"/>
	<path fill="#1D1D1B" d="M71.791,353.603c-2.189-0.654-2.892-2.847-2.929-2.969c-0.307-1.053-1.406-1.664-2.464-1.365
		c-1.063,0.3-1.681,1.405-1.381,2.468c0.051,0.179,1.288,4.401,5.63,5.698c0.191,0.057,0.383,0.084,0.573,0.084
		c0.861,0,1.656-0.561,1.916-1.428C73.451,355.033,72.849,353.919,71.791,353.603z"/>
	<path fill="#1D1D1B" d="M98.883,343.05l-1.494,0.684c-0.204-0.28-0.421-0.548-0.653-0.803l1.276-1.87
		c0.623-0.912,0.388-2.157-0.524-2.779c-0.914-0.623-2.157-0.388-2.78,0.524l-1.234,1.808c-1.08-0.453-2.259-0.707-3.496-0.707
		c-1.857,0-3.584,0.567-5.033,1.534l-1.755-1.51c-0.837-0.721-2.1-0.626-2.82,0.211c-0.721,0.837-0.626,2.1,0.211,2.82l1.586,1.366
		c-0.898,1.455-1.426,3.171-1.426,5.014c0,0.519,0.052,1.025,0.131,1.521l-2.389,0.541c-1.078,0.244-1.753,1.315-1.509,2.393
		c0.21,0.929,1.035,1.559,1.949,1.559c0.146,0,0.295-0.016,0.443-0.05l2.97-0.672c0.238,0.357,0.506,0.691,0.788,1.011l-0.961,0.988
		c-0.771,0.791-0.753,2.058,0.038,2.828c0.389,0.378,0.892,0.566,1.395,0.566c0.521,0,1.041-0.202,1.433-0.604l1.353-1.39
		c1.106,0.479,2.322,0.745,3.596,0.745c1.958,0,3.772-0.63,5.268-1.695l2.136,1.376c0.335,0.216,0.71,0.319,1.082,0.319
		c0.657,0,1.301-0.324,1.683-0.917c0.598-0.928,0.331-2.167-0.598-2.765l-1.59-1.025c0.794-1.392,1.257-3.004,1.257-4.729
		c0-0.67-0.071-1.323-0.202-1.954l1.534-0.702c1.004-0.459,1.446-1.646,0.986-2.651C101.075,343.032,99.889,342.59,98.883,343.05z
		 M84.74,349.343c0-2.997,2.35-5.435,5.237-5.435c2.888,0,5.238,2.438,5.238,5.435c0,2.997-2.35,5.435-5.238,5.435
		C87.09,354.778,84.74,352.34,84.74,349.343z"/>
	<path fill="#1D1D1B" d="M84.643,305.833c-17.645,0-32,14.355-32,32s14.355,32,32,32s32-14.355,32-32
		S102.288,305.833,84.643,305.833z M84.643,365.833c-15.439,0-28-12.561-28-28s12.561-28,28-28s28,12.561,28,28
		S100.083,365.833,84.643,365.833z"/>
</g>
<path fill="#1D1D1B" d="M244.057,316.641l-10.222-10.222c-0.781-0.781-2.048-0.781-2.828,0c-0.781,0.781-0.781,2.047,0,2.829
	l3.697,3.696l-6.269,6.269l-7.939-7.938c-0.781-0.781-2.048-0.781-2.828,0c-0.781,0.781-0.781,2.047,0,2.828l1.755,1.754
	l-28.739,28.739c-0.781,0.781-0.781,2.048,0,2.829l2.934,2.934c-0.473,0.027-0.938,0.214-1.299,0.575
	c-0.781,0.781-0.781,2.047,0,2.829l0.783,0.783l-11.874,11.874c-0.781,0.781-0.781,2.047,0,2.829
	c0.39,0.391,0.902,0.586,1.414,0.586s1.024-0.195,1.414-0.586l11.874-11.874l0.784,0.784c0.39,0.391,0.902,0.586,1.414,0.586
	s1.024-0.195,1.414-0.585c0.361-0.361,0.548-0.827,0.575-1.299l2.934,2.934c0.375,0.375,0.884,0.586,1.414,0.586
	s1.039-0.21,1.414-0.586l28.739-28.739l1.755,1.754c0.391,0.391,0.902,0.586,1.414,0.586s1.024-0.195,1.414-0.586
	c0.781-0.781,0.781-2.047,0-2.828l-7.922-7.922l-0.017-0.017l6.269-6.269l3.697,3.696c0.391,0.391,0.902,0.586,1.414,0.586
	s1.024-0.195,1.414-0.586C244.838,318.688,244.838,317.422,244.057,316.641z M204.466,355.55l-9.539-9.54l3.56-3.56l2.112,2.112
	c0.39,0.39,0.902,0.585,1.414,0.585s1.024-0.195,1.414-0.585c0.781-0.781,0.781-2.048,0-2.829l-2.112-2.112l2.18-2.18l2.112,2.112
	c0.391,0.391,0.902,0.586,1.414,0.586s1.024-0.195,1.415-0.586c0.781-0.781,0.781-2.047,0-2.828l-2.112-2.112l2.18-2.18l2.112,2.112
	c0.391,0.391,0.902,0.586,1.414,0.586s1.024-0.195,1.414-0.586c0.781-0.781,0.781-2.047,0-2.829l-2.112-2.112l2.18-2.18l2.112,2.112
	c0.39,0.39,0.902,0.585,1.414,0.585s1.024-0.195,1.414-0.585c0.781-0.781,0.781-2.048,0-2.829l-2.112-2.112l5.911-5.911l9.539,9.54
	L204.466,355.55z"/>
<g>
	<path fill="#1D1D1B" d="M319.146,340.066c0,0,2.95-1.607,2.95-3.43c0-1.031-0.66-1.475-1.475-1.475
		c-0.815,0-1.475,0.661-1.475,1.475c0-0.814-0.66-1.475-1.475-1.475s-1.475,0.42-1.475,1.475
		C316.196,338.435,319.146,340.066,319.146,340.066z"/>
	<path fill="#1D1D1B" d="M370.477,306.333h-29.833c-1.104,0-2,0.896-2,2v29.5c0,1.104,0.896,2,2,2h11.833v19.917
		c0,3.539-2.878,6.417-6.417,6.417h-14.812c-3.538,0-6.417-2.878-6.417-6.417v-2.026h9.5c1.104,0,2-0.896,2-2v-40.905
		c0-1.104-0.896-2-2-2h-23c-1.104,0-2,0.896-2,2v40.905c0,1.104,0.896,2,2,2h9.5v2.026c0,5.744,4.673,10.417,10.417,10.417h14.812
		c5.744,0,10.417-4.673,10.417-10.417v-19.917h14c1.104,0,2-0.896,2-2v-29.5C372.477,307.229,371.581,306.333,370.477,306.333z
		 M332.331,316.818v25.474h-19v-25.474H332.331z M313.331,346.292h19v7.431h-19V346.292z M354.477,329.167c-1.104,0-2,0.895-2,2
		v4.667h-9.833v-25.5h17.5v25.5h-3.667v-4.667C356.477,330.062,355.581,329.167,354.477,329.167z M368.477,335.833h-4.333v-25.5
		h4.333V335.833z"/>
	<path fill="#1D1D1B" d="M325.01,333.666h2.983v5.756c0,0.829,0.671,1.5,1.5,1.5s1.5-0.671,1.5-1.5v-7.256
		c0-0.829-0.671-1.5-1.5-1.5h-4.483c-0.829,0-1.5,0.671-1.5,1.5S324.182,333.666,325.01,333.666z"/>
	<path fill="#1D1D1B" d="M325.01,328.351h4.483c0.829,0,1.5-0.671,1.5-1.5s-0.671-1.5-1.5-1.5h-2.983v-0.628h2.983
		c0.829,0,1.5-0.671,1.5-1.5v-3.628c0-0.829-0.671-1.5-1.5-1.5h-4.483c-0.829,0-1.5,0.671-1.5,1.5s0.671,1.5,1.5,1.5h2.983v0.628
		h-2.983c-0.829,0-1.5,0.671-1.5,1.5v3.628C323.51,327.68,324.182,328.351,325.01,328.351z"/>
	<path fill="#1D1D1B" d="M321.424,328.351c0.829,0,1.5-0.671,1.5-1.5v-7.256c0-0.829-0.671-1.5-1.5-1.5s-1.5,0.671-1.5,1.5v7.256
		C319.924,327.68,320.595,328.351,321.424,328.351z"/>
	<path fill="#1D1D1B" d="M327.583,351.783c0.52,0,1.04-0.21,1.41-0.59c0.37-0.37,0.59-0.88,0.59-1.41c0-0.53-0.22-1.04-0.59-1.41
		c-0.74-0.75-2.08-0.75-2.83,0c-0.37,0.37-0.58,0.88-0.58,1.41c0,0.53,0.21,1.04,0.58,1.42
		C326.543,351.573,327.053,351.783,327.583,351.783z"/>
	<path fill="#1D1D1B" d="M316.663,348.373c-0.37,0.37-0.58,0.89-0.58,1.41c0,0.53,0.21,1.04,0.58,1.42
		c0.38,0.37,0.89,0.58,1.42,0.58c0.52,0,1.04-0.21,1.41-0.59c0.37-0.37,0.59-0.88,0.59-1.41c0-0.521-0.22-1.04-0.59-1.41
		C318.753,347.623,317.413,347.623,316.663,348.373z"/>
</g>
<g>
	<path fill="#1D1D1B" d="M468.643,321.802c-7.168,0-13,5.832-13,13c0,7.168,5.832,13,13,13s13-5.832,13-13
		C481.643,327.634,475.812,321.802,468.643,321.802z M468.643,343.802c-4.962,0-9-4.038-9-9c0-4.963,4.038-9,9-9s9,4.037,9,9
		C477.643,339.764,473.605,343.802,468.643,343.802z"/>
	<polygon fill="#1D1D1B" points="471.016,328.895 466.271,328.895 466.271,332.429 462.737,332.43 462.737,337.175 466.271,337.175 
		466.271,340.708 471.016,340.708 471.016,337.174 474.55,337.174 474.55,332.428 471.016,332.429 	"/>
	<path fill="#1D1D1B" d="M486.101,305.833h-34.916c-1.104,0-2,0.896-2,2v60c0,1.104,0.896,2,2,2h34.916c1.104,0,2-0.896,2-2v-60
		C488.101,306.729,487.206,305.833,486.101,305.833z M453.185,315.583h30.916v40.25h-30.916V315.583z M484.101,309.833v1.75h-30.916
		v-1.75H484.101z M453.185,365.833v-6h30.916v6H453.185z"/>
	<path fill="#1D1D1B" d="M472.018,360.833h-6.875c-1.104,0-2,0.896-2,2s0.896,2,2,2h6.875c1.104,0,2-0.896,2-2
		S473.123,360.833,472.018,360.833z"/>
</g>
<path fill="#1D1D1B" d="M610.926,332.921c-0.499,0-0.972,0.091-1.43,0.22c-0.513-2.602-2.811-4.57-5.561-4.57
	c-0.856,0-1.665,0.196-2.394,0.537c-0.969-1.739-2.816-2.926-4.945-2.926c-0.581,0-1.141,0.089-1.669,0.252v-0.381
	c0.956-0.15,1.689-0.97,1.689-1.968v-11c0-1.012-0.754-1.839-1.729-1.973c-0.333-2.965-2.857-5.279-5.915-5.279
	c-3.052,0-5.572,2.305-5.912,5.261c-1.059,0.051-1.903,0.918-1.903,1.99v1.23c-0.762-1.02-1.804-2.04-3.102-2.43
	c-1.193-0.359-2.417-0.147-3.54,0.611c-1.401,0.947-2.027,2.398-1.676,3.881c0.166,0.701,0.561,1.324,1.089,1.854
	c-0.472,0.647-0.759,1.427-0.805,2.33c-0.086,1.691,0.697,3.065,2.094,3.677c0.484,0.211,1.008,0.314,1.546,0.314
	c1.301,0,2.681-0.599,3.753-1.696c0.228-0.234,0.441-0.512,0.64-0.812v2.041c0,1.057,0.823,1.913,1.861,1.986v4.271
	c-0.579-0.188-1.195-0.293-1.836-0.293c-3.283,0-5.955,2.671-5.955,5.955v12.069c0,2.983,1.324,5.777,3.631,7.667l4.955,4.057v8.131
	c0,1.104,0.896,2,2,2h21.791c1.104,0,2-0.896,2-2v-7.864c3.804-0.905,6.642-4.331,6.642-8.408v-13.414
	C616.247,335.308,613.86,332.921,610.926,332.921z M592.618,315.085v0.494l-7.459,2.781v-3.275H592.618z M585.159,322.085v-0.523
	l7.459-2.781v3.304H585.159z M588.974,309.833c0.832,0,1.539,0.521,1.821,1.251h-3.641
	C587.435,310.355,588.142,309.833,588.974,309.833z M576.197,314.981c0.304-0.205,0.535-0.267,0.721-0.267
	c0.103,0,0.192,0.019,0.273,0.043c0.614,0.183,1.238,0.867,1.741,1.6c-0.72-0.026-1.505,0.019-2.271,0.193
	c-0.498-0.233-0.83-0.566-0.901-0.865C575.74,315.598,575.677,315.333,576.197,314.981z M578.374,320.76
	c-0.704,0.72-1.531,0.914-1.951,0.73c-0.083-0.036-0.333-0.146-0.301-0.775c0.029-0.571,0.229-0.792,0.42-0.933
	c0.443-0.326,1.186-0.437,1.949-0.437c0.241,0,0.483,0.011,0.72,0.03C578.953,319.94,578.66,320.466,578.374,320.76z
	 M587.078,326.085h3.85v9.983c0,1.104,0.896,2,2,2s2-0.896,2-2v-4.217c0-0.92,0.749-1.669,1.669-1.669s1.669,0.749,1.669,1.669
	v4.717c0,1.104,0.896,2,2,2s2-0.896,2-2v-2.329c0-0.92,0.749-1.669,1.669-1.669s1.669,0.749,1.669,1.669v6.11c0,1.105,0.896,2,2,2
	s2-0.895,2-2v-2.107c0-0.729,0.592-1.321,1.321-1.321s1.321,0.592,1.321,1.321v13.414c0,2.56-2.082,4.642-4.642,4.642
	c-1.104,0-2,0.896-2,2v7.63h-17.791v-7.079c0-0.6-0.269-1.168-0.733-1.548l-5.688-4.657c-1.376-1.127-2.166-2.793-2.166-4.572
	v-12.069c0-1.078,0.877-1.955,1.955-1.955c0.851,0,1.569,0.55,1.836,1.311v6.301c0,1.104,0.896,2,2,2
	c0.02,0,0.039-0.005,0.059-0.006c0.02,0,0.039,0.006,0.059,0.006c1.104,0,1.941-0.896,1.941-2V326.085z"/>
</svg>
